<mxfile host="Electron" modified="2023-11-07T02:54:20.957Z" agent="Mozilla/5.0 (Windows NT 10.0; Win64; x64) AppleWebKit/537.36 (KHTML, like Gecko) draw.io/22.0.1 Chrome/114.0.5735.289 Electron/25.8.4 Safari/537.36" etag="V0BKqV2UQCUFtR0cSp2l" version="22.0.1" type="device" pages="2">
  <diagram name="Page-1" id="3wapU660_-lfpA5lLiF4">
    <mxGraphModel dx="2578" dy="1538" grid="1" gridSize="10" guides="1" tooltips="1" connect="1" arrows="1" fold="1" page="1" pageScale="1" pageWidth="827" pageHeight="1169" math="0" shadow="0">
      <root>
        <mxCell id="0" />
        <mxCell id="1" parent="0" />
        <mxCell id="IQA4J3aChzsUvz2AolsS-49" value="Start" style="text;html=1;strokeColor=none;fillColor=none;align=center;verticalAlign=middle;whiteSpace=wrap;rounded=0;fontFamily=Times New Roman;" parent="1" vertex="1">
          <mxGeometry x="380" y="-30" width="60" height="30" as="geometry" />
        </mxCell>
        <mxCell id="IQA4J3aChzsUvz2AolsS-52" value="&lt;font&gt;&lt;span style=&quot;font-size: 14px;&quot;&gt;Hiển thị form Đăng nhập&amp;nbsp;&lt;/span&gt;&lt;/font&gt;" style="rounded=1;whiteSpace=wrap;html=1;fontFamily=Times New Roman;" parent="1" vertex="1">
          <mxGeometry x="350" y="-179.75" width="120" height="60" as="geometry" />
        </mxCell>
        <mxCell id="IQA4J3aChzsUvz2AolsS-53" value="Nhập tài khoản&amp;nbsp;&lt;br&gt;và mật khẩu&amp;nbsp;" style="rounded=1;whiteSpace=wrap;html=1;fontFamily=Times New Roman;" parent="1" vertex="1">
          <mxGeometry x="570" y="-179.75" width="120" height="60" as="geometry" />
        </mxCell>
        <mxCell id="IQA4J3aChzsUvz2AolsS-54" value="Kiểm tra&amp;nbsp;&lt;br&gt;thông tin" style="rhombus;whiteSpace=wrap;html=1;fontFamily=Times New Roman;" parent="1" vertex="1">
          <mxGeometry x="770" y="-189.75" width="80" height="80" as="geometry" />
        </mxCell>
        <mxCell id="IQA4J3aChzsUvz2AolsS-55" value="" style="endArrow=classic;html=1;rounded=0;exitX=1;exitY=0.5;exitDx=0;exitDy=0;entryX=0;entryY=0.5;entryDx=0;entryDy=0;fontFamily=Times New Roman;" parent="1" source="IQA4J3aChzsUvz2AolsS-53" target="IQA4J3aChzsUvz2AolsS-54" edge="1">
          <mxGeometry width="50" height="50" relative="1" as="geometry">
            <mxPoint x="600" y="40.25" as="sourcePoint" />
            <mxPoint x="650" y="-9.75" as="targetPoint" />
          </mxGeometry>
        </mxCell>
        <mxCell id="IQA4J3aChzsUvz2AolsS-56" value="Thông báo sai tài khoản hoặc mật khẩu" style="rounded=1;whiteSpace=wrap;html=1;fontFamily=Times New Roman;" parent="1" vertex="1">
          <mxGeometry x="930" y="-179.75" width="120" height="60" as="geometry" />
        </mxCell>
        <mxCell id="IQA4J3aChzsUvz2AolsS-57" value="" style="endArrow=classic;html=1;rounded=0;exitX=1;exitY=0.5;exitDx=0;exitDy=0;entryX=0;entryY=0.5;entryDx=0;entryDy=0;fontFamily=Times New Roman;" parent="1" source="IQA4J3aChzsUvz2AolsS-54" target="IQA4J3aChzsUvz2AolsS-56" edge="1">
          <mxGeometry width="50" height="50" relative="1" as="geometry">
            <mxPoint x="790" y="40.25" as="sourcePoint" />
            <mxPoint x="840" y="-9.75" as="targetPoint" />
          </mxGeometry>
        </mxCell>
        <mxCell id="IQA4J3aChzsUvz2AolsS-58" value="Sai" style="edgeLabel;html=1;align=center;verticalAlign=middle;resizable=0;points=[];fontFamily=Times New Roman;" parent="IQA4J3aChzsUvz2AolsS-57" connectable="0" vertex="1">
          <mxGeometry x="-0.375" y="-2" relative="1" as="geometry">
            <mxPoint as="offset" />
          </mxGeometry>
        </mxCell>
        <mxCell id="IQA4J3aChzsUvz2AolsS-59" value="" style="endArrow=classic;html=1;rounded=0;exitX=0.5;exitY=0;exitDx=0;exitDy=0;entryX=0.5;entryY=0;entryDx=0;entryDy=0;fontFamily=Times New Roman;" parent="1" source="IQA4J3aChzsUvz2AolsS-56" target="IQA4J3aChzsUvz2AolsS-52" edge="1">
          <mxGeometry width="50" height="50" relative="1" as="geometry">
            <mxPoint x="790" y="40.25" as="sourcePoint" />
            <mxPoint x="840" y="-9.75" as="targetPoint" />
            <Array as="points">
              <mxPoint x="990" y="-240" />
              <mxPoint x="410" y="-240" />
            </Array>
          </mxGeometry>
        </mxCell>
        <mxCell id="IQA4J3aChzsUvz2AolsS-60" value="" style="endArrow=classic;html=1;rounded=0;exitX=0.5;exitY=1;exitDx=0;exitDy=0;fontFamily=Times New Roman;entryX=0.5;entryY=0;entryDx=0;entryDy=0;" parent="1" source="IQA4J3aChzsUvz2AolsS-54" target="IQA4J3aChzsUvz2AolsS-165" edge="1">
          <mxGeometry width="50" height="50" relative="1" as="geometry">
            <mxPoint x="640" as="sourcePoint" />
            <mxPoint x="870" y="-60" as="targetPoint" />
          </mxGeometry>
        </mxCell>
        <mxCell id="IQA4J3aChzsUvz2AolsS-61" value="Đúng" style="edgeLabel;html=1;align=center;verticalAlign=middle;resizable=0;points=[];fontFamily=Times New Roman;" parent="IQA4J3aChzsUvz2AolsS-60" connectable="0" vertex="1">
          <mxGeometry x="-0.1" y="1" relative="1" as="geometry">
            <mxPoint as="offset" />
          </mxGeometry>
        </mxCell>
        <mxCell id="IQA4J3aChzsUvz2AolsS-65" value="Lấy thông tin&lt;br&gt;&amp;nbsp;tự điền vào&lt;br&gt;(Họ tên, Chức danh, Khoa phòng )" style="rounded=1;whiteSpace=wrap;html=1;fontFamily=Times New Roman;" parent="1" vertex="1">
          <mxGeometry y="210" width="120" height="60" as="geometry" />
        </mxCell>
        <mxCell id="IQA4J3aChzsUvz2AolsS-67" value="Quy tắc&lt;br&gt;&amp;nbsp;ứng xử&lt;br&gt;(Nếu có)" style="rhombus;whiteSpace=wrap;html=1;fontFamily=Times New Roman;" parent="1" vertex="1">
          <mxGeometry x="-160" y="200" width="80" height="80" as="geometry" />
        </mxCell>
        <mxCell id="IQA4J3aChzsUvz2AolsS-68" value="" style="endArrow=classic;html=1;rounded=0;entryX=1;entryY=0.5;entryDx=0;entryDy=0;fontFamily=Times New Roman;exitX=0;exitY=0.5;exitDx=0;exitDy=0;" parent="1" source="IQA4J3aChzsUvz2AolsS-65" target="IQA4J3aChzsUvz2AolsS-67" edge="1">
          <mxGeometry width="50" height="50" relative="1" as="geometry">
            <mxPoint x="50" y="240" as="sourcePoint" />
            <mxPoint x="-70" y="310" as="targetPoint" />
          </mxGeometry>
        </mxCell>
        <mxCell id="IQA4J3aChzsUvz2AolsS-69" value="Hiển thị TextBox&lt;br&gt;&amp;nbsp;để điền vào QTƯX" style="rounded=1;whiteSpace=wrap;html=1;fontFamily=Times New Roman;" parent="1" vertex="1">
          <mxGeometry x="-180" y="340" width="120" height="60" as="geometry" />
        </mxCell>
        <mxCell id="IQA4J3aChzsUvz2AolsS-70" value="" style="endArrow=classic;html=1;rounded=0;exitX=0.5;exitY=1;exitDx=0;exitDy=0;entryX=0.5;entryY=0;entryDx=0;entryDy=0;fontFamily=Times New Roman;" parent="1" source="IQA4J3aChzsUvz2AolsS-67" target="IQA4J3aChzsUvz2AolsS-69" edge="1">
          <mxGeometry width="50" height="50" relative="1" as="geometry">
            <mxPoint x="-110" y="280" as="sourcePoint" />
            <mxPoint x="240" y="300" as="targetPoint" />
          </mxGeometry>
        </mxCell>
        <mxCell id="IQA4J3aChzsUvz2AolsS-71" value="Tích vào ô" style="edgeLabel;html=1;align=center;verticalAlign=middle;resizable=0;points=[];fontFamily=Times New Roman;" parent="IQA4J3aChzsUvz2AolsS-70" connectable="0" vertex="1">
          <mxGeometry x="0.0667" y="-2" relative="1" as="geometry">
            <mxPoint as="offset" />
          </mxGeometry>
        </mxCell>
        <mxCell id="IQA4J3aChzsUvz2AolsS-72" value="Không hiển thị TextBox để điền vào QTƯX" style="rounded=1;whiteSpace=wrap;html=1;fontFamily=Times New Roman;" parent="1" vertex="1">
          <mxGeometry x="-390" y="210" width="120" height="60" as="geometry" />
        </mxCell>
        <mxCell id="IQA4J3aChzsUvz2AolsS-73" value="" style="endArrow=classic;html=1;rounded=0;entryX=1;entryY=0.5;entryDx=0;entryDy=0;exitX=0;exitY=0.5;exitDx=0;exitDy=0;fontFamily=Times New Roman;" parent="1" source="IQA4J3aChzsUvz2AolsS-67" target="IQA4J3aChzsUvz2AolsS-72" edge="1">
          <mxGeometry width="50" height="50" relative="1" as="geometry">
            <mxPoint x="-150" y="240" as="sourcePoint" />
            <mxPoint x="-10" y="160" as="targetPoint" />
          </mxGeometry>
        </mxCell>
        <mxCell id="IQA4J3aChzsUvz2AolsS-74" value="Không tích&amp;nbsp;" style="edgeLabel;html=1;align=center;verticalAlign=middle;resizable=0;points=[];fontFamily=Times New Roman;" parent="IQA4J3aChzsUvz2AolsS-73" connectable="0" vertex="1">
          <mxGeometry x="0.0667" y="-2" relative="1" as="geometry">
            <mxPoint x="3" y="2" as="offset" />
          </mxGeometry>
        </mxCell>
        <mxCell id="IQA4J3aChzsUvz2AolsS-75" value="" style="endArrow=classic;html=1;rounded=0;exitX=0.5;exitY=1;exitDx=0;exitDy=0;entryX=0.25;entryY=0;entryDx=0;entryDy=0;fontFamily=Times New Roman;" parent="1" source="IQA4J3aChzsUvz2AolsS-72" target="IQA4J3aChzsUvz2AolsS-205" edge="1">
          <mxGeometry width="50" height="50" relative="1" as="geometry">
            <mxPoint x="190" y="480" as="sourcePoint" />
            <mxPoint x="-260" y="545" as="targetPoint" />
          </mxGeometry>
        </mxCell>
        <mxCell id="IQA4J3aChzsUvz2AolsS-76" value="" style="endArrow=classic;html=1;rounded=0;exitX=0.5;exitY=1;exitDx=0;exitDy=0;entryX=0.75;entryY=0;entryDx=0;entryDy=0;fontFamily=Times New Roman;" parent="1" source="IQA4J3aChzsUvz2AolsS-69" target="IQA4J3aChzsUvz2AolsS-205" edge="1">
          <mxGeometry width="50" height="50" relative="1" as="geometry">
            <mxPoint x="190" y="350" as="sourcePoint" />
            <mxPoint x="-140" y="545" as="targetPoint" />
          </mxGeometry>
        </mxCell>
        <mxCell id="IQA4J3aChzsUvz2AolsS-78" value="" style="endArrow=classic;html=1;rounded=0;exitX=0.5;exitY=1;exitDx=0;exitDy=0;entryX=0.5;entryY=0;entryDx=0;entryDy=0;fontFamily=Times New Roman;" parent="1" source="IQA4J3aChzsUvz2AolsS-205" target="IQA4J3aChzsUvz2AolsS-79" edge="1">
          <mxGeometry width="50" height="50" relative="1" as="geometry">
            <mxPoint x="-190.4000000000001" y="544.1799999999998" as="sourcePoint" />
            <mxPoint x="-190.27692307692314" y="630" as="targetPoint" />
          </mxGeometry>
        </mxCell>
        <mxCell id="IQA4J3aChzsUvz2AolsS-79" value="Mục tiêu&lt;br&gt;công việc" style="rhombus;whiteSpace=wrap;html=1;fontFamily=Times New Roman;" parent="1" vertex="1">
          <mxGeometry x="-250" y="590" width="80" height="80" as="geometry" />
        </mxCell>
        <mxCell id="IQA4J3aChzsUvz2AolsS-207" value="" style="edgeStyle=orthogonalEdgeStyle;rounded=0;orthogonalLoop=1;jettySize=auto;html=1;fontFamily=Times New Roman;" parent="1" source="IQA4J3aChzsUvz2AolsS-80" target="IQA4J3aChzsUvz2AolsS-206" edge="1">
          <mxGeometry relative="1" as="geometry" />
        </mxCell>
        <mxCell id="IQA4J3aChzsUvz2AolsS-80" value="Hiển thị TextBox&lt;br&gt;&amp;nbsp;để điền vào&amp;nbsp;" style="rounded=1;whiteSpace=wrap;html=1;fontFamily=Times New Roman;" parent="1" vertex="1">
          <mxGeometry x="-270" y="740" width="120" height="60" as="geometry" />
        </mxCell>
        <mxCell id="IQA4J3aChzsUvz2AolsS-81" value="" style="endArrow=classic;html=1;rounded=0;exitX=0.5;exitY=1;exitDx=0;exitDy=0;entryX=0.5;entryY=0;entryDx=0;entryDy=0;fontFamily=Times New Roman;" parent="1" source="IQA4J3aChzsUvz2AolsS-79" target="IQA4J3aChzsUvz2AolsS-80" edge="1">
          <mxGeometry width="50" height="50" relative="1" as="geometry">
            <mxPoint x="90" y="740" as="sourcePoint" />
            <mxPoint x="140" y="690" as="targetPoint" />
          </mxGeometry>
        </mxCell>
        <mxCell id="IQA4J3aChzsUvz2AolsS-82" value="Tích vào ô" style="edgeLabel;html=1;align=center;verticalAlign=middle;resizable=0;points=[];fontFamily=Times New Roman;" parent="IQA4J3aChzsUvz2AolsS-81" connectable="0" vertex="1">
          <mxGeometry x="0.0667" y="-2" relative="1" as="geometry">
            <mxPoint as="offset" />
          </mxGeometry>
        </mxCell>
        <mxCell id="IQA4J3aChzsUvz2AolsS-84" value="Không tích&amp;nbsp;" style="edgeLabel;html=1;align=center;verticalAlign=middle;resizable=0;points=[];fontFamily=Times New Roman;" parent="1" connectable="0" vertex="1">
          <mxGeometry x="-288" y="621" as="geometry" />
        </mxCell>
        <mxCell id="IQA4J3aChzsUvz2AolsS-85" value="" style="endArrow=classic;html=1;rounded=0;entryX=1;entryY=0.5;entryDx=0;entryDy=0;exitX=0;exitY=0.5;exitDx=0;exitDy=0;fontFamily=Times New Roman;" parent="1" source="IQA4J3aChzsUvz2AolsS-79" target="wnVYSvcnBbL3-5IUJZ8I-81" edge="1">
          <mxGeometry width="50" height="50" relative="1" as="geometry">
            <mxPoint x="170" y="650" as="sourcePoint" />
            <mxPoint x="-340" y="630" as="targetPoint" />
          </mxGeometry>
        </mxCell>
        <mxCell id="IQA4J3aChzsUvz2AolsS-88" value="" style="endArrow=classic;html=1;rounded=0;exitX=1;exitY=0.5;exitDx=0;exitDy=0;entryX=0;entryY=0.5;entryDx=0;entryDy=0;fontFamily=Times New Roman;" parent="1" source="IQA4J3aChzsUvz2AolsS-201" target="IQA4J3aChzsUvz2AolsS-93" edge="1">
          <mxGeometry width="50" height="50" relative="1" as="geometry">
            <mxPoint x="920" y="590" as="sourcePoint" />
            <mxPoint x="1215" y="590" as="targetPoint" />
          </mxGeometry>
        </mxCell>
        <mxCell id="wnVYSvcnBbL3-5IUJZ8I-85" value="" style="edgeStyle=orthogonalEdgeStyle;rounded=0;orthogonalLoop=1;jettySize=auto;html=1;" parent="1" source="IQA4J3aChzsUvz2AolsS-93" target="IQA4J3aChzsUvz2AolsS-97" edge="1">
          <mxGeometry relative="1" as="geometry" />
        </mxCell>
        <mxCell id="IQA4J3aChzsUvz2AolsS-93" value="&lt;font&gt;&lt;span style=&quot;font-size: 14px;&quot;&gt;Hiện/ Mở mục&amp;nbsp;&lt;br&gt;Tài Chính&amp;nbsp;&lt;br&gt;&lt;/span&gt;&lt;/font&gt;" style="rounded=1;whiteSpace=wrap;html=1;fontFamily=Times New Roman;" parent="1" vertex="1">
          <mxGeometry x="999" y="540" width="120" height="60" as="geometry" />
        </mxCell>
        <mxCell id="IQA4J3aChzsUvz2AolsS-95" value="&lt;font&gt;&lt;span style=&quot;font-size: 14px;&quot;&gt;Hiện lên nút tiếp tục&lt;br&gt;&lt;/span&gt;&lt;/font&gt;" style="rounded=1;whiteSpace=wrap;html=1;fontFamily=Times New Roman;" parent="1" vertex="1">
          <mxGeometry x="1655" y="640" width="120" height="60" as="geometry" />
        </mxCell>
        <mxCell id="IQA4J3aChzsUvz2AolsS-96" value="Điền/ Thêm &lt;br&gt;thông tin vào&amp;nbsp;" style="rounded=1;whiteSpace=wrap;html=1;fontFamily=Times New Roman;" parent="1" vertex="1">
          <mxGeometry x="1369" y="540" width="120" height="60" as="geometry" />
        </mxCell>
        <mxCell id="IQA4J3aChzsUvz2AolsS-97" value="Tích chọn &lt;br&gt;vào các ô &lt;br&gt;mục tiêu" style="shape=rhombus;perimeter=rhombusPerimeter;whiteSpace=wrap;html=1;align=center;fontFamily=Times New Roman;" parent="1" vertex="1">
          <mxGeometry x="1187" y="530" width="105" height="80" as="geometry" />
        </mxCell>
        <mxCell id="IQA4J3aChzsUvz2AolsS-98" value="" style="endArrow=classic;html=1;rounded=0;entryX=0;entryY=0.5;entryDx=0;entryDy=0;exitX=1;exitY=0.5;exitDx=0;exitDy=0;fontFamily=Times New Roman;" parent="1" source="IQA4J3aChzsUvz2AolsS-97" target="IQA4J3aChzsUvz2AolsS-96" edge="1">
          <mxGeometry width="50" height="50" relative="1" as="geometry">
            <mxPoint x="1641.5" y="609" as="sourcePoint" />
            <mxPoint x="1394" y="449" as="targetPoint" />
          </mxGeometry>
        </mxCell>
        <mxCell id="IQA4J3aChzsUvz2AolsS-99" value="Không tích" style="edgeLabel;html=1;align=center;verticalAlign=middle;resizable=0;points=[];fontFamily=Times New Roman;" parent="IQA4J3aChzsUvz2AolsS-98" connectable="0" vertex="1">
          <mxGeometry x="-0.6" y="-2" relative="1" as="geometry">
            <mxPoint x="-67" y="-68" as="offset" />
          </mxGeometry>
        </mxCell>
        <mxCell id="IQA4J3aChzsUvz2AolsS-100" value="&lt;font&gt;&lt;span style=&quot;font-size: 14px;&quot;&gt;Không được &lt;br&gt;điền/ thêm thông tin&lt;br&gt;&lt;/span&gt;&lt;/font&gt;" style="rounded=1;whiteSpace=wrap;html=1;fontFamily=Times New Roman;" parent="1" vertex="1">
          <mxGeometry x="1180" y="399" width="120" height="60" as="geometry" />
        </mxCell>
        <mxCell id="IQA4J3aChzsUvz2AolsS-101" value="" style="endArrow=classic;html=1;rounded=0;entryX=0.5;entryY=1;entryDx=0;entryDy=0;exitX=0.5;exitY=0;exitDx=0;exitDy=0;fontFamily=Times New Roman;" parent="1" source="IQA4J3aChzsUvz2AolsS-97" target="IQA4J3aChzsUvz2AolsS-100" edge="1">
          <mxGeometry width="50" height="50" relative="1" as="geometry">
            <mxPoint x="1694" y="569" as="sourcePoint" />
            <mxPoint x="1606.5" y="349" as="targetPoint" />
          </mxGeometry>
        </mxCell>
        <mxCell id="wnVYSvcnBbL3-5IUJZ8I-89" value="Tích" style="edgeLabel;html=1;align=center;verticalAlign=middle;resizable=0;points=[];" parent="IQA4J3aChzsUvz2AolsS-101" vertex="1" connectable="0">
          <mxGeometry x="-0.1398" y="-3" relative="1" as="geometry">
            <mxPoint x="78" y="58" as="offset" />
          </mxGeometry>
        </mxCell>
        <mxCell id="IQA4J3aChzsUvz2AolsS-106" value="&lt;font&gt;&lt;span style=&quot;font-size: 14px;&quot;&gt;Hiện/ Mở mục&amp;nbsp;&lt;br&gt;Khách Hàng&amp;nbsp;&lt;br&gt;&lt;/span&gt;&lt;/font&gt;" style="rounded=1;whiteSpace=wrap;html=1;fontFamily=Times New Roman;" parent="1" vertex="1">
          <mxGeometry x="1655" y="820" width="120" height="60" as="geometry" />
        </mxCell>
        <mxCell id="IQA4J3aChzsUvz2AolsS-107" value="" style="endArrow=classic;html=1;rounded=0;entryX=0.5;entryY=0;entryDx=0;entryDy=0;exitX=0.5;exitY=1;exitDx=0;exitDy=0;fontFamily=Times New Roman;" parent="1" source="IQA4J3aChzsUvz2AolsS-95" target="IQA4J3aChzsUvz2AolsS-106" edge="1">
          <mxGeometry width="50" height="50" relative="1" as="geometry">
            <mxPoint x="1354" y="780" as="sourcePoint" />
            <mxPoint x="1404" y="730" as="targetPoint" />
          </mxGeometry>
        </mxCell>
        <mxCell id="wnVYSvcnBbL3-5IUJZ8I-97" value="Ấn nút&amp;nbsp;" style="edgeLabel;html=1;align=center;verticalAlign=middle;resizable=0;points=[];" parent="IQA4J3aChzsUvz2AolsS-107" vertex="1" connectable="0">
          <mxGeometry x="0.1362" y="-2" relative="1" as="geometry">
            <mxPoint x="6" y="-8" as="offset" />
          </mxGeometry>
        </mxCell>
        <mxCell id="IQA4J3aChzsUvz2AolsS-109" value="Tích chọn &lt;br&gt;vào các ô &lt;br&gt;mục tiêu" style="shape=rhombus;perimeter=rhombusPerimeter;whiteSpace=wrap;html=1;align=center;fontFamily=Times New Roman;" parent="1" vertex="1">
          <mxGeometry x="1292" y="800" width="105" height="80" as="geometry" />
        </mxCell>
        <mxCell id="IQA4J3aChzsUvz2AolsS-121" value="&lt;font&gt;&lt;span style=&quot;font-size: 14px;&quot;&gt;Hiện/ Mở mục&amp;nbsp;&lt;br&gt;Vận Hành&lt;br&gt;&lt;/span&gt;&lt;/font&gt;" style="rounded=1;whiteSpace=wrap;html=1;fontFamily=Times New Roman;" parent="1" vertex="1">
          <mxGeometry x="767.5" y="680" width="120" height="60" as="geometry" />
        </mxCell>
        <mxCell id="wnVYSvcnBbL3-5IUJZ8I-203" value="" style="edgeStyle=orthogonalEdgeStyle;rounded=0;orthogonalLoop=1;jettySize=auto;html=1;" parent="1" source="IQA4J3aChzsUvz2AolsS-136" target="wnVYSvcnBbL3-5IUJZ8I-197" edge="1">
          <mxGeometry relative="1" as="geometry" />
        </mxCell>
        <mxCell id="IQA4J3aChzsUvz2AolsS-136" value="&lt;font&gt;&lt;span style=&quot;font-size: 14px;&quot;&gt;Hiện/ Mở mục&amp;nbsp;&lt;br&gt;Phát triển&amp;nbsp;&lt;br&gt;&lt;/span&gt;&lt;/font&gt;" style="rounded=1;whiteSpace=wrap;html=1;fontFamily=Times New Roman;" parent="1" vertex="1">
          <mxGeometry x="234" y="1225" width="120" height="60" as="geometry" />
        </mxCell>
        <mxCell id="IQA4J3aChzsUvz2AolsS-155" value="" style="ellipse;html=1;shape=endState;fillColor=#000000;strokeColor=#ff0000;fontFamily=Times New Roman;" parent="1" vertex="1">
          <mxGeometry x="2053" y="-186.25" width="30" height="30" as="geometry" />
        </mxCell>
        <mxCell id="IQA4J3aChzsUvz2AolsS-156" value="" style="ellipse;html=1;shape=startState;fillColor=#000000;strokeColor=#ff0000;fontFamily=Times New Roman;" parent="1" vertex="1">
          <mxGeometry x="395" y="-69.75" width="30" height="30" as="geometry" />
        </mxCell>
        <mxCell id="IQA4J3aChzsUvz2AolsS-157" value="" style="edgeStyle=orthogonalEdgeStyle;html=1;verticalAlign=bottom;endArrow=open;endSize=8;strokeColor=#ff0000;rounded=0;entryX=0.5;entryY=1;entryDx=0;entryDy=0;fontFamily=Times New Roman;" parent="1" source="IQA4J3aChzsUvz2AolsS-156" target="IQA4J3aChzsUvz2AolsS-52" edge="1">
          <mxGeometry relative="1" as="geometry">
            <mxPoint x="55" y="40" as="targetPoint" />
          </mxGeometry>
        </mxCell>
        <mxCell id="IQA4J3aChzsUvz2AolsS-158" value="" style="edgeStyle=orthogonalEdgeStyle;rounded=0;orthogonalLoop=1;jettySize=auto;html=1;exitX=1;exitY=0.5;exitDx=0;exitDy=0;fontFamily=Times New Roman;" parent="1" source="IQA4J3aChzsUvz2AolsS-52" target="IQA4J3aChzsUvz2AolsS-53" edge="1">
          <mxGeometry relative="1" as="geometry">
            <mxPoint x="530" y="-149.75" as="sourcePoint" />
          </mxGeometry>
        </mxCell>
        <mxCell id="ID0eNAxXGshLxh3ft6_7-59" value="" style="edgeStyle=orthogonalEdgeStyle;rounded=0;orthogonalLoop=1;jettySize=auto;html=1;entryX=1;entryY=0.5;entryDx=0;entryDy=0;" parent="1" source="IQA4J3aChzsUvz2AolsS-165" target="ID0eNAxXGshLxh3ft6_7-60" edge="1">
          <mxGeometry relative="1" as="geometry" />
        </mxCell>
        <mxCell id="IQA4J3aChzsUvz2AolsS-165" value="Hiện form chính&amp;nbsp;" style="rounded=1;whiteSpace=wrap;html=1;fontFamily=Times New Roman;" parent="1" vertex="1">
          <mxGeometry x="750" y="-30" width="120" height="60" as="geometry" />
        </mxCell>
        <mxCell id="IQA4J3aChzsUvz2AolsS-166" value="" style="endArrow=classic;html=1;rounded=0;exitX=0.5;exitY=1;exitDx=0;exitDy=0;fontFamily=Times New Roman;entryX=0.5;entryY=0;entryDx=0;entryDy=0;" parent="1" source="IQA4J3aChzsUvz2AolsS-165" target="wnVYSvcnBbL3-5IUJZ8I-83" edge="1">
          <mxGeometry width="50" height="50" relative="1" as="geometry">
            <mxPoint x="820" y="160" as="sourcePoint" />
            <mxPoint x="820" y="220" as="targetPoint" />
          </mxGeometry>
        </mxCell>
        <mxCell id="IQA4J3aChzsUvz2AolsS-171" value="" style="endArrow=classic;html=1;rounded=0;exitX=0.5;exitY=1;exitDx=0;exitDy=0;fontFamily=Times New Roman;entryX=0.5;entryY=0;entryDx=0;entryDy=0;" parent="1" source="IQA4J3aChzsUvz2AolsS-176" target="IQA4J3aChzsUvz2AolsS-198" edge="1">
          <mxGeometry x="-0.086" y="2" width="50" height="50" relative="1" as="geometry">
            <mxPoint x="875" y="287" as="sourcePoint" />
            <mxPoint x="810" y="360" as="targetPoint" />
            <mxPoint as="offset" />
          </mxGeometry>
        </mxCell>
        <mxCell id="IQA4J3aChzsUvz2AolsS-179" value="Khoa/ Phòng" style="edgeLabel;html=1;align=center;verticalAlign=middle;resizable=0;points=[];rotation=0;fontFamily=Times New Roman;" parent="IQA4J3aChzsUvz2AolsS-171" vertex="1" connectable="0">
          <mxGeometry x="-0.0052" y="1" relative="1" as="geometry">
            <mxPoint y="-5" as="offset" />
          </mxGeometry>
        </mxCell>
        <mxCell id="IQA4J3aChzsUvz2AolsS-175" value="" style="endArrow=classic;html=1;rounded=0;exitX=0;exitY=0.5;exitDx=0;exitDy=0;fontFamily=Times New Roman;entryX=1;entryY=0.5;entryDx=0;entryDy=0;" parent="1" source="IQA4J3aChzsUvz2AolsS-176" target="IQA4J3aChzsUvz2AolsS-65" edge="1">
          <mxGeometry width="50" height="50" relative="1" as="geometry">
            <mxPoint x="770" y="240" as="sourcePoint" />
            <mxPoint x="690" y="240" as="targetPoint" />
          </mxGeometry>
        </mxCell>
        <mxCell id="IQA4J3aChzsUvz2AolsS-183" value="Cá nhân" style="edgeLabel;html=1;align=center;verticalAlign=middle;resizable=0;points=[];fontFamily=Times New Roman;" parent="IQA4J3aChzsUvz2AolsS-175" vertex="1" connectable="0">
          <mxGeometry x="0.0561" y="2" relative="1" as="geometry">
            <mxPoint y="-12" as="offset" />
          </mxGeometry>
        </mxCell>
        <mxCell id="IQA4J3aChzsUvz2AolsS-176" value="Kiểm tra&amp;nbsp;&lt;br&gt;Chức vụ" style="rhombus;whiteSpace=wrap;html=1;fontFamily=Times New Roman;" parent="1" vertex="1">
          <mxGeometry x="770" y="200" width="80" height="80" as="geometry" />
        </mxCell>
        <mxCell id="IQA4J3aChzsUvz2AolsS-188" value="&lt;font&gt;&lt;span style=&quot;font-size: 14px;&quot;&gt;Điền Họ Tên và&lt;br&gt;Chọn Trưởng Khoa/ Phòng&lt;br&gt;&lt;/span&gt;&lt;/font&gt;" style="rounded=1;whiteSpace=wrap;html=1;fontFamily=Times New Roman;" parent="1" vertex="1">
          <mxGeometry x="1004" y="210" width="120" height="60" as="geometry" />
        </mxCell>
        <mxCell id="IQA4J3aChzsUvz2AolsS-190" value="" style="endArrow=classic;html=1;rounded=0;fontFamily=Times New Roman;exitX=1;exitY=0.5;exitDx=0;exitDy=0;entryX=0;entryY=0.5;entryDx=0;entryDy=0;" parent="1" source="IQA4J3aChzsUvz2AolsS-176" target="IQA4J3aChzsUvz2AolsS-188" edge="1">
          <mxGeometry width="50" height="50" relative="1" as="geometry">
            <mxPoint x="850" y="240" as="sourcePoint" />
            <mxPoint x="1280" y="270" as="targetPoint" />
          </mxGeometry>
        </mxCell>
        <mxCell id="IQA4J3aChzsUvz2AolsS-191" value="Lãnh Đạo" style="edgeLabel;html=1;align=center;verticalAlign=middle;resizable=0;points=[];rotation=0;fontFamily=Times New Roman;" parent="IQA4J3aChzsUvz2AolsS-190" vertex="1" connectable="0">
          <mxGeometry x="-0.1689" y="-2" relative="1" as="geometry">
            <mxPoint x="5" y="-12" as="offset" />
          </mxGeometry>
        </mxCell>
        <mxCell id="IQA4J3aChzsUvz2AolsS-192" value="" style="endArrow=classic;html=1;rounded=0;entryX=0.75;entryY=0.5;entryDx=0;entryDy=0;exitX=0.5;exitY=1;exitDx=0;exitDy=0;entryPerimeter=0;fontFamily=Times New Roman;" parent="1" source="IQA4J3aChzsUvz2AolsS-188" target="IQA4J3aChzsUvz2AolsS-193" edge="1">
          <mxGeometry width="50" height="50" relative="1" as="geometry">
            <mxPoint x="870" y="430" as="sourcePoint" />
            <mxPoint x="1064" y="340" as="targetPoint" />
          </mxGeometry>
        </mxCell>
        <mxCell id="IQA4J3aChzsUvz2AolsS-193" value="" style="shape=line;html=1;strokeWidth=6;strokeColor=#000000;fontFamily=Times New Roman;" parent="1" vertex="1">
          <mxGeometry x="760" y="480" width="200" height="10" as="geometry" />
        </mxCell>
        <mxCell id="IQA4J3aChzsUvz2AolsS-194" value="" style="endArrow=classic;html=1;rounded=0;entryX=0.5;entryY=0;entryDx=0;entryDy=0;exitX=0.501;exitY=0.3;exitDx=0;exitDy=0;exitPerimeter=0;fontFamily=Times New Roman;" parent="1" source="IQA4J3aChzsUvz2AolsS-193" target="IQA4J3aChzsUvz2AolsS-201" edge="1">
          <mxGeometry width="50" height="50" relative="1" as="geometry">
            <mxPoint x="690" y="570" as="sourcePoint" />
            <mxPoint x="860" y="560" as="targetPoint" />
          </mxGeometry>
        </mxCell>
        <mxCell id="IQA4J3aChzsUvz2AolsS-198" value="&lt;font&gt;&lt;span style=&quot;font-size: 14px;&quot;&gt;Chọn Khoa/ Phòng&lt;br&gt;&lt;/span&gt;&lt;/font&gt;" style="rounded=1;whiteSpace=wrap;html=1;fontFamily=Times New Roman;" parent="1" vertex="1">
          <mxGeometry x="750" y="370" width="120" height="60" as="geometry" />
        </mxCell>
        <mxCell id="IQA4J3aChzsUvz2AolsS-200" value="" style="endArrow=classic;html=1;rounded=0;exitX=0.5;exitY=1;exitDx=0;exitDy=0;entryX=0.25;entryY=0.5;entryDx=0;entryDy=0;entryPerimeter=0;fontFamily=Times New Roman;" parent="1" source="IQA4J3aChzsUvz2AolsS-198" target="IQA4J3aChzsUvz2AolsS-193" edge="1">
          <mxGeometry width="50" height="50" relative="1" as="geometry">
            <mxPoint x="1170" y="660" as="sourcePoint" />
            <mxPoint x="1220" y="610" as="targetPoint" />
          </mxGeometry>
        </mxCell>
        <mxCell id="IQA4J3aChzsUvz2AolsS-201" value="Ấn tiếp tục" style="rounded=1;whiteSpace=wrap;html=1;fontFamily=Times New Roman;" parent="1" vertex="1">
          <mxGeometry x="800" y="540" width="120" height="60" as="geometry" />
        </mxCell>
        <mxCell id="IQA4J3aChzsUvz2AolsS-205" value="Ấn tiếp tục" style="rounded=1;whiteSpace=wrap;html=1;fontFamily=Times New Roman;" parent="1" vertex="1">
          <mxGeometry x="-270" y="470" width="120" height="60" as="geometry" />
        </mxCell>
        <mxCell id="IQA4J3aChzsUvz2AolsS-206" value="Ấn button" style="rhombus;whiteSpace=wrap;html=1;fontFamily=Times New Roman;" parent="1" vertex="1">
          <mxGeometry x="-250" y="850" width="80" height="80" as="geometry" />
        </mxCell>
        <mxCell id="IQA4J3aChzsUvz2AolsS-208" value="" style="endArrow=classic;html=1;rounded=0;exitX=0.5;exitY=1;exitDx=0;exitDy=0;entryX=0.5;entryY=0;entryDx=0;entryDy=0;fontFamily=Times New Roman;" parent="1" source="IQA4J3aChzsUvz2AolsS-206" target="IQA4J3aChzsUvz2AolsS-215" edge="1">
          <mxGeometry width="50" height="50" relative="1" as="geometry">
            <mxPoint x="-420" y="1020" as="sourcePoint" />
            <mxPoint x="-210" y="1020" as="targetPoint" />
          </mxGeometry>
        </mxCell>
        <mxCell id="IQA4J3aChzsUvz2AolsS-210" value="Tiếp tục" style="edgeLabel;html=1;align=center;verticalAlign=middle;resizable=0;points=[];fontFamily=Times New Roman;" parent="IQA4J3aChzsUvz2AolsS-208" vertex="1" connectable="0">
          <mxGeometry x="-0.5247" y="-2" relative="1" as="geometry">
            <mxPoint x="2" y="12" as="offset" />
          </mxGeometry>
        </mxCell>
        <mxCell id="IQA4J3aChzsUvz2AolsS-209" value="" style="endArrow=classic;html=1;rounded=0;exitX=0;exitY=0.5;exitDx=0;exitDy=0;entryX=0.5;entryY=0;entryDx=0;entryDy=0;fontFamily=Times New Roman;" parent="1" source="IQA4J3aChzsUvz2AolsS-206" target="IQA4J3aChzsUvz2AolsS-67" edge="1">
          <mxGeometry width="50" height="50" relative="1" as="geometry">
            <mxPoint x="-530" y="850" as="sourcePoint" />
            <mxPoint x="-480" y="800" as="targetPoint" />
            <Array as="points">
              <mxPoint x="-470" y="890" />
              <mxPoint x="-470" y="150" />
              <mxPoint x="-120" y="150" />
            </Array>
          </mxGeometry>
        </mxCell>
        <mxCell id="IQA4J3aChzsUvz2AolsS-211" value="Quay lại" style="edgeLabel;html=1;align=center;verticalAlign=middle;resizable=0;points=[];fontFamily=Times New Roman;" parent="IQA4J3aChzsUvz2AolsS-209" vertex="1" connectable="0">
          <mxGeometry x="-0.0659" relative="1" as="geometry">
            <mxPoint as="offset" />
          </mxGeometry>
        </mxCell>
        <mxCell id="IQA4J3aChzsUvz2AolsS-214" value="" style="endArrow=classic;html=1;rounded=0;exitX=0;exitY=0.5;exitDx=0;exitDy=0;fontFamily=Times New Roman;entryX=0.75;entryY=0.5;entryDx=0;entryDy=0;entryPerimeter=0;" parent="1" source="IQA4J3aChzsUvz2AolsS-52" target="ID0eNAxXGshLxh3ft6_7-92" edge="1">
          <mxGeometry width="50" height="50" relative="1" as="geometry">
            <mxPoint x="580" y="220" as="sourcePoint" />
            <mxPoint x="1955" y="1580" as="targetPoint" />
            <Array as="points">
              <mxPoint x="310" y="-150" />
              <mxPoint x="310" y="-280" />
              <mxPoint x="1130" y="-280" />
            </Array>
          </mxGeometry>
        </mxCell>
        <mxCell id="IQA4J3aChzsUvz2AolsS-222" value="" style="edgeStyle=orthogonalEdgeStyle;rounded=0;orthogonalLoop=1;jettySize=auto;html=1;fontFamily=Times New Roman;" parent="1" source="IQA4J3aChzsUvz2AolsS-215" target="IQA4J3aChzsUvz2AolsS-221" edge="1">
          <mxGeometry relative="1" as="geometry" />
        </mxCell>
        <mxCell id="IQA4J3aChzsUvz2AolsS-223" value="Tích vào ô" style="edgeLabel;html=1;align=center;verticalAlign=middle;resizable=0;points=[];fontFamily=Times New Roman;" parent="IQA4J3aChzsUvz2AolsS-222" vertex="1" connectable="0">
          <mxGeometry x="-0.0045" y="2" relative="1" as="geometry">
            <mxPoint y="-10" as="offset" />
          </mxGeometry>
        </mxCell>
        <mxCell id="IQA4J3aChzsUvz2AolsS-215" value="Mục tiêu thêm&lt;br&gt;(nếu có)" style="rhombus;whiteSpace=wrap;html=1;fontFamily=Times New Roman;" parent="1" vertex="1">
          <mxGeometry x="-265" y="990" width="110" height="100" as="geometry" />
        </mxCell>
        <mxCell id="ID0eNAxXGshLxh3ft6_7-2" value="" style="edgeStyle=orthogonalEdgeStyle;rounded=0;orthogonalLoop=1;jettySize=auto;html=1;" parent="1" source="IQA4J3aChzsUvz2AolsS-217" target="ID0eNAxXGshLxh3ft6_7-1" edge="1">
          <mxGeometry relative="1" as="geometry" />
        </mxCell>
        <mxCell id="IQA4J3aChzsUvz2AolsS-217" value="Hoàn thành" style="rounded=1;whiteSpace=wrap;html=1;fontFamily=Times New Roman;" parent="1" vertex="1">
          <mxGeometry x="1156.2" y="1520" width="120" height="60" as="geometry" />
        </mxCell>
        <mxCell id="IQA4J3aChzsUvz2AolsS-221" value="Hiển thị TextBox&lt;br style=&quot;border-color: var(--border-color);&quot;&gt;&lt;span style=&quot;&quot;&gt;&amp;nbsp;để điền vào Mục tiêu thêm&lt;/span&gt;" style="rounded=1;whiteSpace=wrap;html=1;fontFamily=Times New Roman;" parent="1" vertex="1">
          <mxGeometry x="-490" y="1010" width="120" height="60" as="geometry" />
        </mxCell>
        <mxCell id="ID0eNAxXGshLxh3ft6_7-11" value="" style="edgeStyle=orthogonalEdgeStyle;rounded=0;orthogonalLoop=1;jettySize=auto;html=1;" parent="1" source="IQA4J3aChzsUvz2AolsS-235" target="IQA4J3aChzsUvz2AolsS-236" edge="1">
          <mxGeometry relative="1" as="geometry" />
        </mxCell>
        <mxCell id="IQA4J3aChzsUvz2AolsS-235" value="Hiện lên bảng Excel" style="rounded=1;whiteSpace=wrap;html=1;" parent="1" vertex="1">
          <mxGeometry x="1156.2" y="1896" width="120" height="60" as="geometry" />
        </mxCell>
        <mxCell id="ID0eNAxXGshLxh3ft6_7-12" value="" style="edgeStyle=orthogonalEdgeStyle;rounded=0;orthogonalLoop=1;jettySize=auto;html=1;entryX=0;entryY=0.5;entryDx=0;entryDy=0;" parent="1" source="IQA4J3aChzsUvz2AolsS-236" target="wnVYSvcnBbL3-5IUJZ8I-45" edge="1">
          <mxGeometry relative="1" as="geometry">
            <mxPoint x="1320" y="2051" as="targetPoint" />
          </mxGeometry>
        </mxCell>
        <mxCell id="ID0eNAxXGshLxh3ft6_7-18" value="Xác nhận gửi đi" style="edgeLabel;html=1;align=center;verticalAlign=middle;resizable=0;points=[];" parent="ID0eNAxXGshLxh3ft6_7-12" vertex="1" connectable="0">
          <mxGeometry x="-0.0972" relative="1" as="geometry">
            <mxPoint x="-7" y="-11" as="offset" />
          </mxGeometry>
        </mxCell>
        <mxCell id="ID0eNAxXGshLxh3ft6_7-13" value="" style="edgeStyle=orthogonalEdgeStyle;rounded=0;orthogonalLoop=1;jettySize=auto;html=1;" parent="1" source="IQA4J3aChzsUvz2AolsS-236" target="IQA4J3aChzsUvz2AolsS-245" edge="1">
          <mxGeometry relative="1" as="geometry" />
        </mxCell>
        <mxCell id="ID0eNAxXGshLxh3ft6_7-17" value="Chỉnh sửa" style="edgeLabel;html=1;align=center;verticalAlign=middle;resizable=0;points=[];" parent="ID0eNAxXGshLxh3ft6_7-13" vertex="1" connectable="0">
          <mxGeometry x="0.222" y="2" relative="1" as="geometry">
            <mxPoint x="13" y="-13" as="offset" />
          </mxGeometry>
        </mxCell>
        <mxCell id="IQA4J3aChzsUvz2AolsS-236" value="Chọn/ Ấn button" style="rhombus;whiteSpace=wrap;html=1;" parent="1" vertex="1">
          <mxGeometry x="1176.2" y="2011" width="80" height="80" as="geometry" />
        </mxCell>
        <mxCell id="IQA4J3aChzsUvz2AolsS-239" value="" style="endArrow=classic;html=1;rounded=0;entryX=0.5;entryY=0;entryDx=0;entryDy=0;exitX=0.5;exitY=1;exitDx=0;exitDy=0;" parent="1" source="ID0eNAxXGshLxh3ft6_7-1" target="ID0eNAxXGshLxh3ft6_7-3" edge="1">
          <mxGeometry width="50" height="50" relative="1" as="geometry">
            <mxPoint x="1180" y="1680" as="sourcePoint" />
            <mxPoint x="1390" y="1630" as="targetPoint" />
          </mxGeometry>
        </mxCell>
        <mxCell id="ID0eNAxXGshLxh3ft6_7-14" value="" style="edgeStyle=orthogonalEdgeStyle;rounded=0;orthogonalLoop=1;jettySize=auto;html=1;" parent="1" source="IQA4J3aChzsUvz2AolsS-245" target="wnVYSvcnBbL3-5IUJZ8I-63" edge="1">
          <mxGeometry relative="1" as="geometry" />
        </mxCell>
        <mxCell id="IQA4J3aChzsUvz2AolsS-245" value="Mở lại form biểu mẫu đã có thông tin để chỉnh sửa&amp;nbsp;" style="rounded=1;whiteSpace=wrap;html=1;" parent="1" vertex="1">
          <mxGeometry x="942" y="2021" width="120" height="60" as="geometry" />
        </mxCell>
        <mxCell id="wnVYSvcnBbL3-5IUJZ8I-13" value="Gửi dữ liệu vào mục của Trưởng Khoa/ Phòng" style="rounded=1;whiteSpace=wrap;html=1;" parent="1" vertex="1">
          <mxGeometry x="1740" y="2021" width="120" height="60" as="geometry" />
        </mxCell>
        <mxCell id="wnVYSvcnBbL3-5IUJZ8I-14" value="" style="endArrow=classic;html=1;rounded=0;exitX=0.5;exitY=0;exitDx=0;exitDy=0;entryX=1;entryY=0.75;entryDx=0;entryDy=0;" parent="1" source="wnVYSvcnBbL3-5IUJZ8I-13" target="IQA4J3aChzsUvz2AolsS-165" edge="1">
          <mxGeometry width="50" height="50" relative="1" as="geometry">
            <mxPoint x="840" y="1340" as="sourcePoint" />
            <mxPoint x="890" y="1290" as="targetPoint" />
            <Array as="points">
              <mxPoint x="1800" y="300" />
              <mxPoint x="1310" y="300" />
            </Array>
          </mxGeometry>
        </mxCell>
        <mxCell id="wnVYSvcnBbL3-5IUJZ8I-17" value="" style="endArrow=classic;html=1;rounded=0;entryX=0.5;entryY=0;entryDx=0;entryDy=0;exitX=0.5;exitY=1;exitDx=0;exitDy=0;" parent="1" source="wnVYSvcnBbL3-5IUJZ8I-193" target="IQA4J3aChzsUvz2AolsS-217" edge="1">
          <mxGeometry width="50" height="50" relative="1" as="geometry">
            <mxPoint x="1182.0000000000005" y="1574" as="sourcePoint" />
            <mxPoint x="1560" y="1520" as="targetPoint" />
          </mxGeometry>
        </mxCell>
        <mxCell id="wnVYSvcnBbL3-5IUJZ8I-52" value="" style="edgeStyle=orthogonalEdgeStyle;rounded=0;orthogonalLoop=1;jettySize=auto;html=1;entryX=0;entryY=0.5;entryDx=0;entryDy=0;" parent="1" source="wnVYSvcnBbL3-5IUJZ8I-45" target="wnVYSvcnBbL3-5IUJZ8I-46" edge="1">
          <mxGeometry relative="1" as="geometry">
            <mxPoint x="1766" y="2061" as="targetPoint" />
          </mxGeometry>
        </mxCell>
        <mxCell id="wnVYSvcnBbL3-5IUJZ8I-45" value="Hiện lên thông báo&amp;nbsp;&lt;br&gt;&quot;Bạn có muốn xác nhận gửi đi không&quot;" style="rounded=1;whiteSpace=wrap;html=1;" parent="1" vertex="1">
          <mxGeometry x="1369" y="2021" width="120" height="60" as="geometry" />
        </mxCell>
        <mxCell id="wnVYSvcnBbL3-5IUJZ8I-46" value="Kiểm tra" style="rhombus;whiteSpace=wrap;html=1;" parent="1" vertex="1">
          <mxGeometry x="1572" y="2011" width="80" height="80" as="geometry" />
        </mxCell>
        <mxCell id="wnVYSvcnBbL3-5IUJZ8I-53" value="" style="endArrow=classic;html=1;rounded=0;exitX=1;exitY=0.5;exitDx=0;exitDy=0;entryX=0;entryY=0.5;entryDx=0;entryDy=0;" parent="1" source="wnVYSvcnBbL3-5IUJZ8I-46" target="wnVYSvcnBbL3-5IUJZ8I-13" edge="1">
          <mxGeometry width="50" height="50" relative="1" as="geometry">
            <mxPoint x="1846" y="2061" as="sourcePoint" />
            <mxPoint x="1821.9499999999998" y="2054.0249999999996" as="targetPoint" />
            <Array as="points" />
          </mxGeometry>
        </mxCell>
        <mxCell id="wnVYSvcnBbL3-5IUJZ8I-54" value="Đồng ý" style="edgeLabel;html=1;align=center;verticalAlign=middle;resizable=0;points=[];" parent="wnVYSvcnBbL3-5IUJZ8I-53" vertex="1" connectable="0">
          <mxGeometry x="-0.0534" y="1" relative="1" as="geometry">
            <mxPoint y="-6" as="offset" />
          </mxGeometry>
        </mxCell>
        <mxCell id="wnVYSvcnBbL3-5IUJZ8I-55" value="" style="endArrow=classic;html=1;rounded=0;entryX=1;entryY=0.5;entryDx=0;entryDy=0;exitX=0.5;exitY=0;exitDx=0;exitDy=0;" parent="1" source="wnVYSvcnBbL3-5IUJZ8I-46" target="IQA4J3aChzsUvz2AolsS-235" edge="1">
          <mxGeometry width="50" height="50" relative="1" as="geometry">
            <mxPoint x="1580" y="2066" as="sourcePoint" />
            <mxPoint x="1630" y="2016" as="targetPoint" />
            <Array as="points">
              <mxPoint x="1612" y="1926" />
            </Array>
          </mxGeometry>
        </mxCell>
        <mxCell id="wnVYSvcnBbL3-5IUJZ8I-56" value="Không" style="edgeLabel;html=1;align=center;verticalAlign=middle;resizable=0;points=[];" parent="wnVYSvcnBbL3-5IUJZ8I-55" vertex="1" connectable="0">
          <mxGeometry x="0.0039" y="-2" relative="1" as="geometry">
            <mxPoint x="-26" y="-6" as="offset" />
          </mxGeometry>
        </mxCell>
        <mxCell id="ID0eNAxXGshLxh3ft6_7-15" value="" style="edgeStyle=orthogonalEdgeStyle;rounded=0;orthogonalLoop=1;jettySize=auto;html=1;" parent="1" source="wnVYSvcnBbL3-5IUJZ8I-63" target="wnVYSvcnBbL3-5IUJZ8I-65" edge="1">
          <mxGeometry relative="1" as="geometry" />
        </mxCell>
        <mxCell id="wnVYSvcnBbL3-5IUJZ8I-63" value="Lưu" style="rounded=1;whiteSpace=wrap;html=1;" parent="1" vertex="1">
          <mxGeometry x="809" y="2021" width="70" height="60" as="geometry" />
        </mxCell>
        <mxCell id="ID0eNAxXGshLxh3ft6_7-16" value="" style="edgeStyle=orthogonalEdgeStyle;rounded=0;orthogonalLoop=1;jettySize=auto;html=1;" parent="1" source="wnVYSvcnBbL3-5IUJZ8I-65" target="wnVYSvcnBbL3-5IUJZ8I-67" edge="1">
          <mxGeometry relative="1" as="geometry" />
        </mxCell>
        <mxCell id="wnVYSvcnBbL3-5IUJZ8I-65" value="Hiện lên thông báo&amp;nbsp;&lt;br&gt;&quot;Bạn có muốn lưu không?&quot;" style="rounded=1;whiteSpace=wrap;html=1;" parent="1" vertex="1">
          <mxGeometry x="623" y="2021" width="120" height="60" as="geometry" />
        </mxCell>
        <mxCell id="wnVYSvcnBbL3-5IUJZ8I-67" value="Kiểm tra" style="rhombus;whiteSpace=wrap;html=1;" parent="1" vertex="1">
          <mxGeometry x="470" y="2011" width="80" height="80" as="geometry" />
        </mxCell>
        <mxCell id="wnVYSvcnBbL3-5IUJZ8I-81" value="Không hiển thị TextBox để điền vào QTƯX" style="rounded=1;whiteSpace=wrap;html=1;fontFamily=Times New Roman;" parent="1" vertex="1">
          <mxGeometry x="-450" y="600" width="120" height="60" as="geometry" />
        </mxCell>
        <mxCell id="wnVYSvcnBbL3-5IUJZ8I-84" value="" style="edgeStyle=orthogonalEdgeStyle;rounded=0;orthogonalLoop=1;jettySize=auto;html=1;" parent="1" source="wnVYSvcnBbL3-5IUJZ8I-83" target="IQA4J3aChzsUvz2AolsS-176" edge="1">
          <mxGeometry relative="1" as="geometry" />
        </mxCell>
        <mxCell id="wnVYSvcnBbL3-5IUJZ8I-83" value="&lt;font&gt;&lt;span style=&quot;font-size: 14px;&quot;&gt;Chọn biểu mẫu&lt;br&gt;(theo quý/ năm)&lt;br&gt;&lt;/span&gt;&lt;/font&gt;" style="rounded=1;whiteSpace=wrap;html=1;fontFamily=Times New Roman;" parent="1" vertex="1">
          <mxGeometry x="750" y="80" width="120" height="60" as="geometry" />
        </mxCell>
        <mxCell id="wnVYSvcnBbL3-5IUJZ8I-86" value="" style="shape=line;html=1;strokeWidth=6;strokeColor=#000000;fontFamily=Times New Roman;rotation=-90;" parent="1" vertex="1">
          <mxGeometry x="1458.11" y="501.99" width="214.18" height="10" as="geometry" />
        </mxCell>
        <mxCell id="wnVYSvcnBbL3-5IUJZ8I-87" value="" style="endArrow=classic;html=1;rounded=0;exitX=0.414;exitY=0.501;exitDx=0;exitDy=0;exitPerimeter=0;entryX=0;entryY=0.5;entryDx=0;entryDy=0;" parent="1" source="wnVYSvcnBbL3-5IUJZ8I-86" target="wnVYSvcnBbL3-5IUJZ8I-90" edge="1">
          <mxGeometry width="50" height="50" relative="1" as="geometry">
            <mxPoint x="1602" y="609" as="sourcePoint" />
            <mxPoint x="969" y="669" as="targetPoint" />
          </mxGeometry>
        </mxCell>
        <mxCell id="wnVYSvcnBbL3-5IUJZ8I-91" value="" style="edgeStyle=orthogonalEdgeStyle;rounded=0;orthogonalLoop=1;jettySize=auto;html=1;" parent="1" source="wnVYSvcnBbL3-5IUJZ8I-90" target="IQA4J3aChzsUvz2AolsS-95" edge="1">
          <mxGeometry relative="1" as="geometry" />
        </mxCell>
        <mxCell id="wnVYSvcnBbL3-5IUJZ8I-92" value="Đủ" style="edgeLabel;html=1;align=center;verticalAlign=middle;resizable=0;points=[];" parent="wnVYSvcnBbL3-5IUJZ8I-91" vertex="1" connectable="0">
          <mxGeometry x="0.08" y="2" relative="1" as="geometry">
            <mxPoint x="-2" y="-3" as="offset" />
          </mxGeometry>
        </mxCell>
        <mxCell id="wnVYSvcnBbL3-5IUJZ8I-94" value="" style="edgeStyle=orthogonalEdgeStyle;rounded=0;orthogonalLoop=1;jettySize=auto;html=1;entryX=0.5;entryY=1;entryDx=0;entryDy=0;" parent="1" source="wnVYSvcnBbL3-5IUJZ8I-90" target="wnVYSvcnBbL3-5IUJZ8I-93" edge="1">
          <mxGeometry relative="1" as="geometry" />
        </mxCell>
        <mxCell id="wnVYSvcnBbL3-5IUJZ8I-96" value="Không đủ" style="edgeLabel;html=1;align=center;verticalAlign=middle;resizable=0;points=[];" parent="wnVYSvcnBbL3-5IUJZ8I-94" vertex="1" connectable="0">
          <mxGeometry x="-0.4128" y="-2" relative="1" as="geometry">
            <mxPoint x="-5" y="-6" as="offset" />
          </mxGeometry>
        </mxCell>
        <mxCell id="wnVYSvcnBbL3-5IUJZ8I-90" value="Kiểm tra đủ số&lt;br&gt;&amp;nbsp;mục tiêu tối thiểu" style="rhombus;whiteSpace=wrap;html=1;" parent="1" vertex="1">
          <mxGeometry x="1649" y="490" width="126" height="80" as="geometry" />
        </mxCell>
        <mxCell id="wnVYSvcnBbL3-5IUJZ8I-93" value="Hiện thông báo&amp;nbsp;&lt;br&gt;&quot;Vui lòng chọn đủ số mục tiêu tối thiểu &quot;" style="rounded=1;whiteSpace=wrap;html=1;" parent="1" vertex="1">
          <mxGeometry x="1652" y="359" width="120" height="60" as="geometry" />
        </mxCell>
        <mxCell id="wnVYSvcnBbL3-5IUJZ8I-98" value="Điền/ Thêm &lt;br&gt;thông tin vào&amp;nbsp;" style="rounded=1;whiteSpace=wrap;html=1;fontFamily=Times New Roman;" parent="1" vertex="1">
          <mxGeometry x="1284.5" y="940" width="120" height="60" as="geometry" />
        </mxCell>
        <mxCell id="wnVYSvcnBbL3-5IUJZ8I-99" value="" style="endArrow=classic;html=1;rounded=0;entryX=0.5;entryY=0;entryDx=0;entryDy=0;exitX=0.5;exitY=1;exitDx=0;exitDy=0;fontFamily=Times New Roman;" parent="1" source="IQA4J3aChzsUvz2AolsS-109" target="wnVYSvcnBbL3-5IUJZ8I-98" edge="1">
          <mxGeometry width="50" height="50" relative="1" as="geometry">
            <mxPoint x="1070.5" y="960" as="sourcePoint" />
            <mxPoint x="1172.5" y="839" as="targetPoint" />
          </mxGeometry>
        </mxCell>
        <mxCell id="wnVYSvcnBbL3-5IUJZ8I-100" value="Không tích" style="edgeLabel;html=1;align=center;verticalAlign=middle;resizable=0;points=[];fontFamily=Times New Roman;" parent="wnVYSvcnBbL3-5IUJZ8I-99" connectable="0" vertex="1">
          <mxGeometry x="-0.6" y="-2" relative="1" as="geometry">
            <mxPoint x="3" y="-120" as="offset" />
          </mxGeometry>
        </mxCell>
        <mxCell id="wnVYSvcnBbL3-5IUJZ8I-101" value="Tích" style="edgeLabel;html=1;align=center;verticalAlign=middle;resizable=0;points=[];" parent="1" vertex="1" connectable="0">
          <mxGeometry x="1344.5" y="902.9999999999999" as="geometry" />
        </mxCell>
        <mxCell id="wnVYSvcnBbL3-5IUJZ8I-103" value="" style="endArrow=classic;html=1;rounded=0;entryX=0.5;entryY=1;entryDx=0;entryDy=0;exitX=0.5;exitY=0;exitDx=0;exitDy=0;fontFamily=Times New Roman;" parent="1" source="IQA4J3aChzsUvz2AolsS-109" target="wnVYSvcnBbL3-5IUJZ8I-102" edge="1">
          <mxGeometry width="50" height="50" relative="1" as="geometry">
            <mxPoint x="959" y="930" as="sourcePoint" />
            <mxPoint x="959" y="869" as="targetPoint" />
            <Array as="points" />
          </mxGeometry>
        </mxCell>
        <mxCell id="wnVYSvcnBbL3-5IUJZ8I-102" value="&lt;font&gt;&lt;span style=&quot;font-size: 14px;&quot;&gt;Không được &lt;br&gt;điền/ thêm thông tin&lt;br&gt;&lt;/span&gt;&lt;/font&gt;" style="rounded=1;whiteSpace=wrap;html=1;fontFamily=Times New Roman;" parent="1" vertex="1">
          <mxGeometry x="1284.5" y="680" width="120" height="60" as="geometry" />
        </mxCell>
        <mxCell id="wnVYSvcnBbL3-5IUJZ8I-106" value="" style="shape=line;html=1;strokeWidth=6;strokeColor=#000000;fontFamily=Times New Roman;rotation=90;" parent="1" vertex="1">
          <mxGeometry x="1003.32" y="835.32" width="371.38" height="10" as="geometry" />
        </mxCell>
        <mxCell id="wnVYSvcnBbL3-5IUJZ8I-144" value="" style="edgeStyle=orthogonalEdgeStyle;rounded=0;orthogonalLoop=1;jettySize=auto;html=1;" parent="1" source="wnVYSvcnBbL3-5IUJZ8I-111" target="wnVYSvcnBbL3-5IUJZ8I-120" edge="1">
          <mxGeometry relative="1" as="geometry" />
        </mxCell>
        <mxCell id="wnVYSvcnBbL3-5IUJZ8I-146" value="Đủ" style="edgeLabel;html=1;align=center;verticalAlign=middle;resizable=0;points=[];" parent="wnVYSvcnBbL3-5IUJZ8I-144" vertex="1" connectable="0">
          <mxGeometry x="-0.2333" y="-3" relative="1" as="geometry">
            <mxPoint x="-4" y="-1" as="offset" />
          </mxGeometry>
        </mxCell>
        <mxCell id="wnVYSvcnBbL3-5IUJZ8I-145" value="" style="edgeStyle=orthogonalEdgeStyle;rounded=0;orthogonalLoop=1;jettySize=auto;html=1;" parent="1" source="wnVYSvcnBbL3-5IUJZ8I-111" target="wnVYSvcnBbL3-5IUJZ8I-115" edge="1">
          <mxGeometry relative="1" as="geometry" />
        </mxCell>
        <mxCell id="wnVYSvcnBbL3-5IUJZ8I-147" value="Không đủ" style="edgeLabel;html=1;align=center;verticalAlign=middle;resizable=0;points=[];" parent="wnVYSvcnBbL3-5IUJZ8I-145" vertex="1" connectable="0">
          <mxGeometry x="0.1333" y="3" relative="1" as="geometry">
            <mxPoint x="-5" y="-11" as="offset" />
          </mxGeometry>
        </mxCell>
        <mxCell id="wnVYSvcnBbL3-5IUJZ8I-111" value="Kiểm tra đủ số&lt;br&gt;&amp;nbsp;mục tiêu tối thiểu" style="rhombus;whiteSpace=wrap;html=1;" parent="1" vertex="1">
          <mxGeometry x="979" y="800" width="126" height="80" as="geometry" />
        </mxCell>
        <mxCell id="wnVYSvcnBbL3-5IUJZ8I-112" value="" style="endArrow=classic;html=1;rounded=0;entryX=1;entryY=0.5;entryDx=0;entryDy=0;exitX=0.5;exitY=0.501;exitDx=0;exitDy=0;exitPerimeter=0;" parent="1" source="wnVYSvcnBbL3-5IUJZ8I-106" target="wnVYSvcnBbL3-5IUJZ8I-111" edge="1">
          <mxGeometry width="50" height="50" relative="1" as="geometry">
            <mxPoint x="1180" y="860" as="sourcePoint" />
            <mxPoint x="1099" y="680" as="targetPoint" />
          </mxGeometry>
        </mxCell>
        <mxCell id="wnVYSvcnBbL3-5IUJZ8I-115" value="Hiện thông báo&amp;nbsp;&lt;br&gt;&quot;Vui lòng chọn đủ số mục tiêu tối thiểu &quot;" style="rounded=1;whiteSpace=wrap;html=1;" parent="1" vertex="1">
          <mxGeometry x="982" y="940" width="120" height="60" as="geometry" />
        </mxCell>
        <mxCell id="wnVYSvcnBbL3-5IUJZ8I-120" value="&lt;font&gt;&lt;span style=&quot;font-size: 14px;&quot;&gt;Hiện lên nút tiếp tục&lt;br&gt;&lt;/span&gt;&lt;/font&gt;" style="rounded=1;whiteSpace=wrap;html=1;fontFamily=Times New Roman;" parent="1" vertex="1">
          <mxGeometry x="982" y="680" width="120" height="60" as="geometry" />
        </mxCell>
        <mxCell id="wnVYSvcnBbL3-5IUJZ8I-124" value="" style="endArrow=classic;html=1;rounded=0;entryX=0.75;entryY=0.5;entryDx=0;entryDy=0;entryPerimeter=0;exitX=1;exitY=0.5;exitDx=0;exitDy=0;" parent="1" source="IQA4J3aChzsUvz2AolsS-100" target="wnVYSvcnBbL3-5IUJZ8I-86" edge="1">
          <mxGeometry width="50" height="50" relative="1" as="geometry">
            <mxPoint x="1199" y="829" as="sourcePoint" />
            <mxPoint x="1249" y="779" as="targetPoint" />
          </mxGeometry>
        </mxCell>
        <mxCell id="wnVYSvcnBbL3-5IUJZ8I-125" value="" style="endArrow=classic;html=1;rounded=0;entryX=0.25;entryY=0.5;entryDx=0;entryDy=0;entryPerimeter=0;exitX=1;exitY=0.5;exitDx=0;exitDy=0;" parent="1" source="IQA4J3aChzsUvz2AolsS-96" target="wnVYSvcnBbL3-5IUJZ8I-86" edge="1">
          <mxGeometry width="50" height="50" relative="1" as="geometry">
            <mxPoint x="1199" y="829" as="sourcePoint" />
            <mxPoint x="1249" y="779" as="targetPoint" />
          </mxGeometry>
        </mxCell>
        <mxCell id="wnVYSvcnBbL3-5IUJZ8I-127" value="" style="endArrow=classic;html=1;rounded=0;entryX=0.5;entryY=0;entryDx=0;entryDy=0;exitX=0.5;exitY=0;exitDx=0;exitDy=0;" parent="1" source="wnVYSvcnBbL3-5IUJZ8I-93" target="IQA4J3aChzsUvz2AolsS-93" edge="1">
          <mxGeometry width="50" height="50" relative="1" as="geometry">
            <mxPoint x="1409" y="699" as="sourcePoint" />
            <mxPoint x="1459" y="649" as="targetPoint" />
            <Array as="points">
              <mxPoint x="1712" y="339" />
              <mxPoint x="1059" y="339" />
            </Array>
          </mxGeometry>
        </mxCell>
        <mxCell id="wnVYSvcnBbL3-5IUJZ8I-129" value="" style="endArrow=classic;html=1;rounded=0;entryX=0.75;entryY=0.5;entryDx=0;entryDy=0;entryPerimeter=0;exitX=0;exitY=0.5;exitDx=0;exitDy=0;" parent="1" source="wnVYSvcnBbL3-5IUJZ8I-98" target="wnVYSvcnBbL3-5IUJZ8I-106" edge="1">
          <mxGeometry width="50" height="50" relative="1" as="geometry">
            <mxPoint x="1169" y="720" as="sourcePoint" />
            <mxPoint x="1219" y="670" as="targetPoint" />
          </mxGeometry>
        </mxCell>
        <mxCell id="wnVYSvcnBbL3-5IUJZ8I-130" value="" style="endArrow=classic;html=1;rounded=0;entryX=1;entryY=0.5;entryDx=0;entryDy=0;exitX=0.25;exitY=0.5;exitDx=0;exitDy=0;exitPerimeter=0;" parent="1" source="wnVYSvcnBbL3-5IUJZ8I-138" target="IQA4J3aChzsUvz2AolsS-109" edge="1">
          <mxGeometry width="50" height="50" relative="1" as="geometry">
            <mxPoint x="1549" y="896.88" as="sourcePoint" />
            <mxPoint x="1489" y="940.005" as="targetPoint" />
          </mxGeometry>
        </mxCell>
        <mxCell id="wnVYSvcnBbL3-5IUJZ8I-135" value="" style="endArrow=classic;html=1;rounded=0;entryX=0.5;entryY=1;entryDx=0;entryDy=0;exitX=0.5;exitY=0;exitDx=0;exitDy=0;" parent="1" source="wnVYSvcnBbL3-5IUJZ8I-136" target="IQA4J3aChzsUvz2AolsS-93" edge="1">
          <mxGeometry width="50" height="50" relative="1" as="geometry">
            <mxPoint x="1060" y="680" as="sourcePoint" />
            <mxPoint x="1220" y="670" as="targetPoint" />
            <Array as="points">
              <mxPoint x="1500" y="640" />
              <mxPoint x="1059" y="640" />
            </Array>
          </mxGeometry>
        </mxCell>
        <mxCell id="wnVYSvcnBbL3-5IUJZ8I-136" value="Ấn nút Quay Lại" style="rounded=1;whiteSpace=wrap;html=1;" parent="1" vertex="1">
          <mxGeometry x="1440.0000000000002" y="680" width="120" height="60" as="geometry" />
        </mxCell>
        <mxCell id="wnVYSvcnBbL3-5IUJZ8I-139" value="" style="edgeStyle=orthogonalEdgeStyle;rounded=0;orthogonalLoop=1;jettySize=auto;html=1;exitX=0.75;exitY=0.5;exitDx=0;exitDy=0;exitPerimeter=0;" parent="1" source="wnVYSvcnBbL3-5IUJZ8I-138" target="wnVYSvcnBbL3-5IUJZ8I-136" edge="1">
          <mxGeometry relative="1" as="geometry" />
        </mxCell>
        <mxCell id="wnVYSvcnBbL3-5IUJZ8I-138" value="" style="shape=line;html=1;strokeWidth=6;strokeColor=#000000;fontFamily=Times New Roman;rotation=-90;" parent="1" vertex="1">
          <mxGeometry x="1550" y="850" width="95" height="10" as="geometry" />
        </mxCell>
        <mxCell id="wnVYSvcnBbL3-5IUJZ8I-140" value="" style="endArrow=classic;html=1;rounded=0;exitX=0;exitY=0.5;exitDx=0;exitDy=0;entryX=0.553;entryY=0.322;entryDx=0;entryDy=0;entryPerimeter=0;" parent="1" source="IQA4J3aChzsUvz2AolsS-106" target="wnVYSvcnBbL3-5IUJZ8I-138" edge="1">
          <mxGeometry width="50" height="50" relative="1" as="geometry">
            <mxPoint x="1250" y="720" as="sourcePoint" />
            <mxPoint x="1300" y="670" as="targetPoint" />
          </mxGeometry>
        </mxCell>
        <mxCell id="wnVYSvcnBbL3-5IUJZ8I-142" value="" style="endArrow=classic;html=1;rounded=0;entryX=0.25;entryY=0.5;entryDx=0;entryDy=0;entryPerimeter=0;exitX=0;exitY=0.5;exitDx=0;exitDy=0;" parent="1" source="wnVYSvcnBbL3-5IUJZ8I-102" target="wnVYSvcnBbL3-5IUJZ8I-106" edge="1">
          <mxGeometry width="50" height="50" relative="1" as="geometry">
            <mxPoint x="1250" y="850" as="sourcePoint" />
            <mxPoint x="1300" y="800" as="targetPoint" />
          </mxGeometry>
        </mxCell>
        <mxCell id="wnVYSvcnBbL3-5IUJZ8I-143" value="" style="endArrow=classic;html=1;rounded=0;entryX=0.5;entryY=1;entryDx=0;entryDy=0;exitX=0.5;exitY=1;exitDx=0;exitDy=0;" parent="1" source="wnVYSvcnBbL3-5IUJZ8I-115" target="IQA4J3aChzsUvz2AolsS-106" edge="1">
          <mxGeometry width="50" height="50" relative="1" as="geometry">
            <mxPoint x="740" y="800" as="sourcePoint" />
            <mxPoint x="790" y="750" as="targetPoint" />
            <Array as="points">
              <mxPoint x="1042" y="1040" />
              <mxPoint x="1390" y="1040" />
              <mxPoint x="1715" y="1040" />
            </Array>
          </mxGeometry>
        </mxCell>
        <mxCell id="wnVYSvcnBbL3-5IUJZ8I-148" value="" style="endArrow=classic;html=1;rounded=0;entryX=1;entryY=0.5;entryDx=0;entryDy=0;exitX=0;exitY=0.5;exitDx=0;exitDy=0;" parent="1" source="wnVYSvcnBbL3-5IUJZ8I-120" target="IQA4J3aChzsUvz2AolsS-121" edge="1">
          <mxGeometry width="50" height="50" relative="1" as="geometry">
            <mxPoint x="1030" y="970" as="sourcePoint" />
            <mxPoint x="1080" y="920" as="targetPoint" />
          </mxGeometry>
        </mxCell>
        <mxCell id="wnVYSvcnBbL3-5IUJZ8I-149" value="Ấn nút tiếp tục" style="edgeLabel;html=1;align=center;verticalAlign=middle;resizable=0;points=[];" parent="wnVYSvcnBbL3-5IUJZ8I-148" vertex="1" connectable="0">
          <mxGeometry x="0.2275" y="2" relative="1" as="geometry">
            <mxPoint x="12" y="-10" as="offset" />
          </mxGeometry>
        </mxCell>
        <mxCell id="wnVYSvcnBbL3-5IUJZ8I-150" value="Tích chọn &lt;br&gt;vào các ô &lt;br&gt;mục tiêu" style="shape=rhombus;perimeter=rhombusPerimeter;whiteSpace=wrap;html=1;align=center;fontFamily=Times New Roman;" parent="1" vertex="1">
          <mxGeometry x="687.5" y="879.9999999999999" width="105" height="80" as="geometry" />
        </mxCell>
        <mxCell id="wnVYSvcnBbL3-5IUJZ8I-151" value="Điền/ Thêm &lt;br&gt;thông tin vào&amp;nbsp;" style="rounded=1;whiteSpace=wrap;html=1;fontFamily=Times New Roman;" parent="1" vertex="1">
          <mxGeometry x="520" y="840" width="120" height="60" as="geometry" />
        </mxCell>
        <mxCell id="wnVYSvcnBbL3-5IUJZ8I-152" value="" style="endArrow=classic;html=1;rounded=0;entryX=1;entryY=0.5;entryDx=0;entryDy=0;exitX=0;exitY=0.5;exitDx=0;exitDy=0;fontFamily=Times New Roman;" parent="1" source="wnVYSvcnBbL3-5IUJZ8I-150" target="wnVYSvcnBbL3-5IUJZ8I-151" edge="1">
          <mxGeometry width="50" height="50" relative="1" as="geometry">
            <mxPoint x="1241.5" y="1465.37" as="sourcePoint" />
            <mxPoint x="1343.5" y="1344.37" as="targetPoint" />
            <Array as="points">
              <mxPoint x="660" y="920" />
              <mxPoint x="660" y="870" />
            </Array>
          </mxGeometry>
        </mxCell>
        <mxCell id="wnVYSvcnBbL3-5IUJZ8I-153" value="Không tích" style="edgeLabel;html=1;align=center;verticalAlign=middle;resizable=0;points=[];fontFamily=Times New Roman;" parent="wnVYSvcnBbL3-5IUJZ8I-152" connectable="0" vertex="1">
          <mxGeometry x="-0.6" y="-2" relative="1" as="geometry">
            <mxPoint x="64" y="72" as="offset" />
          </mxGeometry>
        </mxCell>
        <mxCell id="wnVYSvcnBbL3-5IUJZ8I-154" value="Tích" style="edgeLabel;html=1;align=center;verticalAlign=middle;resizable=0;points=[];" parent="1" vertex="1" connectable="0">
          <mxGeometry x="673.5" y="861.9999999999999" as="geometry" />
        </mxCell>
        <mxCell id="wnVYSvcnBbL3-5IUJZ8I-155" value="" style="endArrow=classic;html=1;rounded=0;entryX=0.5;entryY=0;entryDx=0;entryDy=0;exitX=0.5;exitY=1;exitDx=0;exitDy=0;fontFamily=Times New Roman;" parent="1" source="wnVYSvcnBbL3-5IUJZ8I-150" target="wnVYSvcnBbL3-5IUJZ8I-156" edge="1">
          <mxGeometry width="50" height="50" relative="1" as="geometry">
            <mxPoint x="1130" y="1435.37" as="sourcePoint" />
            <mxPoint x="1130" y="1374.37" as="targetPoint" />
            <Array as="points" />
          </mxGeometry>
        </mxCell>
        <mxCell id="wnVYSvcnBbL3-5IUJZ8I-156" value="&lt;font&gt;&lt;span style=&quot;font-size: 14px;&quot;&gt;Không được &lt;br&gt;điền/ thêm thông tin&lt;br&gt;&lt;/span&gt;&lt;/font&gt;" style="rounded=1;whiteSpace=wrap;html=1;fontFamily=Times New Roman;" parent="1" vertex="1">
          <mxGeometry x="680" y="1020" width="120" height="60" as="geometry" />
        </mxCell>
        <mxCell id="wnVYSvcnBbL3-5IUJZ8I-157" value="" style="shape=line;html=1;strokeWidth=6;strokeColor=#000000;fontFamily=Times New Roman;rotation=-90;" parent="1" vertex="1">
          <mxGeometry x="315.62" y="950" width="281.38" height="10" as="geometry" />
        </mxCell>
        <mxCell id="wnVYSvcnBbL3-5IUJZ8I-158" value="" style="edgeStyle=orthogonalEdgeStyle;rounded=0;orthogonalLoop=1;jettySize=auto;html=1;exitX=0.5;exitY=1;exitDx=0;exitDy=0;" parent="1" source="wnVYSvcnBbL3-5IUJZ8I-162" target="wnVYSvcnBbL3-5IUJZ8I-165" edge="1">
          <mxGeometry relative="1" as="geometry">
            <mxPoint x="360" y="890" as="sourcePoint" />
          </mxGeometry>
        </mxCell>
        <mxCell id="wnVYSvcnBbL3-5IUJZ8I-159" value="Đủ" style="edgeLabel;html=1;align=center;verticalAlign=middle;resizable=0;points=[];" parent="wnVYSvcnBbL3-5IUJZ8I-158" vertex="1" connectable="0">
          <mxGeometry x="-0.2333" y="-3" relative="1" as="geometry">
            <mxPoint y="3" as="offset" />
          </mxGeometry>
        </mxCell>
        <mxCell id="wnVYSvcnBbL3-5IUJZ8I-160" value="" style="edgeStyle=orthogonalEdgeStyle;rounded=0;orthogonalLoop=1;jettySize=auto;html=1;exitX=0.5;exitY=0;exitDx=0;exitDy=0;" parent="1" source="wnVYSvcnBbL3-5IUJZ8I-162" target="wnVYSvcnBbL3-5IUJZ8I-164" edge="1">
          <mxGeometry relative="1" as="geometry">
            <mxPoint x="220" y="1000" as="sourcePoint" />
          </mxGeometry>
        </mxCell>
        <mxCell id="wnVYSvcnBbL3-5IUJZ8I-161" value="Không đủ" style="edgeLabel;html=1;align=center;verticalAlign=middle;resizable=0;points=[];" parent="wnVYSvcnBbL3-5IUJZ8I-160" vertex="1" connectable="0">
          <mxGeometry x="0.1333" y="3" relative="1" as="geometry">
            <mxPoint x="-1" y="11" as="offset" />
          </mxGeometry>
        </mxCell>
        <mxCell id="wnVYSvcnBbL3-5IUJZ8I-162" value="Kiểm tra đủ số&lt;br&gt;&amp;nbsp;mục tiêu tối thiểu" style="rhombus;whiteSpace=wrap;html=1;" parent="1" vertex="1">
          <mxGeometry x="231" y="920" width="126" height="80" as="geometry" />
        </mxCell>
        <mxCell id="wnVYSvcnBbL3-5IUJZ8I-163" value="" style="endArrow=classic;html=1;rounded=0;entryX=1;entryY=0.5;entryDx=0;entryDy=0;exitX=0.487;exitY=0.695;exitDx=0;exitDy=0;exitPerimeter=0;" parent="1" source="wnVYSvcnBbL3-5IUJZ8I-157" target="wnVYSvcnBbL3-5IUJZ8I-162" edge="1">
          <mxGeometry width="50" height="50" relative="1" as="geometry">
            <mxPoint x="1351" y="1365.37" as="sourcePoint" />
            <mxPoint x="1270" y="1185.37" as="targetPoint" />
          </mxGeometry>
        </mxCell>
        <mxCell id="wnVYSvcnBbL3-5IUJZ8I-164" value="Hiện thông báo&amp;nbsp;&lt;br&gt;&quot;Vui lòng chọn đủ số mục tiêu tối thiểu &quot;" style="rounded=1;whiteSpace=wrap;html=1;" parent="1" vertex="1">
          <mxGeometry x="234" y="780" width="120" height="60" as="geometry" />
        </mxCell>
        <mxCell id="wnVYSvcnBbL3-5IUJZ8I-165" value="&lt;font&gt;&lt;span style=&quot;font-size: 14px;&quot;&gt;Hiện lên nút tiếp tục&lt;br&gt;&lt;/span&gt;&lt;/font&gt;" style="rounded=1;whiteSpace=wrap;html=1;fontFamily=Times New Roman;" parent="1" vertex="1">
          <mxGeometry x="234" y="1080" width="120" height="60" as="geometry" />
        </mxCell>
        <mxCell id="wnVYSvcnBbL3-5IUJZ8I-166" value="" style="endArrow=classic;html=1;rounded=0;entryX=0.75;entryY=0.5;entryDx=0;entryDy=0;entryPerimeter=0;exitX=0;exitY=0.5;exitDx=0;exitDy=0;" parent="1" source="wnVYSvcnBbL3-5IUJZ8I-151" target="wnVYSvcnBbL3-5IUJZ8I-157" edge="1">
          <mxGeometry width="50" height="50" relative="1" as="geometry">
            <mxPoint x="1340" y="1225.37" as="sourcePoint" />
            <mxPoint x="1390" y="1175.37" as="targetPoint" />
          </mxGeometry>
        </mxCell>
        <mxCell id="wnVYSvcnBbL3-5IUJZ8I-167" value="" style="endArrow=classic;html=1;rounded=0;entryX=0.5;entryY=0;entryDx=0;entryDy=0;exitX=0.25;exitY=0.5;exitDx=0;exitDy=0;exitPerimeter=0;" parent="1" source="wnVYSvcnBbL3-5IUJZ8I-170" target="wnVYSvcnBbL3-5IUJZ8I-150" edge="1">
          <mxGeometry width="50" height="50" relative="1" as="geometry">
            <mxPoint x="1720" y="1402.25" as="sourcePoint" />
            <mxPoint x="1660" y="1445.375" as="targetPoint" />
          </mxGeometry>
        </mxCell>
        <mxCell id="wnVYSvcnBbL3-5IUJZ8I-168" value="Ấn nút Quay Lại" style="rounded=1;whiteSpace=wrap;html=1;" parent="1" vertex="1">
          <mxGeometry x="827.0000000000002" y="879.9999999999999" width="120" height="60" as="geometry" />
        </mxCell>
        <mxCell id="wnVYSvcnBbL3-5IUJZ8I-170" value="" style="shape=line;html=1;strokeWidth=6;strokeColor=#000000;fontFamily=Times New Roman;rotation=0;" parent="1" vertex="1">
          <mxGeometry x="750" y="800" width="150" height="10" as="geometry" />
        </mxCell>
        <mxCell id="wnVYSvcnBbL3-5IUJZ8I-171" value="" style="endArrow=classic;html=1;rounded=0;entryX=0.25;entryY=0.5;entryDx=0;entryDy=0;entryPerimeter=0;exitX=0;exitY=0.5;exitDx=0;exitDy=0;" parent="1" source="wnVYSvcnBbL3-5IUJZ8I-156" target="wnVYSvcnBbL3-5IUJZ8I-157" edge="1">
          <mxGeometry width="50" height="50" relative="1" as="geometry">
            <mxPoint x="1421" y="1355.37" as="sourcePoint" />
            <mxPoint x="1471" y="1305.37" as="targetPoint" />
          </mxGeometry>
        </mxCell>
        <mxCell id="wnVYSvcnBbL3-5IUJZ8I-172" value="" style="endArrow=classic;html=1;rounded=0;exitX=0.5;exitY=1;exitDx=0;exitDy=0;" parent="1" source="IQA4J3aChzsUvz2AolsS-121" target="wnVYSvcnBbL3-5IUJZ8I-170" edge="1">
          <mxGeometry width="50" height="50" relative="1" as="geometry">
            <mxPoint x="940" y="860" as="sourcePoint" />
            <mxPoint x="990" y="810" as="targetPoint" />
          </mxGeometry>
        </mxCell>
        <mxCell id="wnVYSvcnBbL3-5IUJZ8I-173" value="" style="endArrow=classic;html=1;rounded=0;exitX=0.75;exitY=0.5;exitDx=0;exitDy=0;exitPerimeter=0;entryX=0.5;entryY=0;entryDx=0;entryDy=0;" parent="1" source="wnVYSvcnBbL3-5IUJZ8I-170" target="wnVYSvcnBbL3-5IUJZ8I-168" edge="1">
          <mxGeometry width="50" height="50" relative="1" as="geometry">
            <mxPoint x="940" y="860" as="sourcePoint" />
            <mxPoint x="990" y="810" as="targetPoint" />
          </mxGeometry>
        </mxCell>
        <mxCell id="wnVYSvcnBbL3-5IUJZ8I-174" value="" style="endArrow=classic;html=1;rounded=0;exitX=0.5;exitY=0;exitDx=0;exitDy=0;entryX=0;entryY=0.5;entryDx=0;entryDy=0;" parent="1" source="wnVYSvcnBbL3-5IUJZ8I-164" target="IQA4J3aChzsUvz2AolsS-121" edge="1">
          <mxGeometry width="50" height="50" relative="1" as="geometry">
            <mxPoint x="580" y="970" as="sourcePoint" />
            <mxPoint x="900" y="1120" as="targetPoint" />
            <Array as="points">
              <mxPoint x="294" y="710" />
            </Array>
          </mxGeometry>
        </mxCell>
        <mxCell id="wnVYSvcnBbL3-5IUJZ8I-175" value="" style="endArrow=classic;html=1;rounded=0;exitX=0.5;exitY=1;exitDx=0;exitDy=0;entryX=0.5;entryY=0;entryDx=0;entryDy=0;" parent="1" source="wnVYSvcnBbL3-5IUJZ8I-165" target="IQA4J3aChzsUvz2AolsS-136" edge="1">
          <mxGeometry width="50" height="50" relative="1" as="geometry">
            <mxPoint x="580" y="1310" as="sourcePoint" />
            <mxPoint x="630" y="1260" as="targetPoint" />
          </mxGeometry>
        </mxCell>
        <mxCell id="wnVYSvcnBbL3-5IUJZ8I-176" value="Ấn nút tiếp tục" style="edgeLabel;html=1;align=center;verticalAlign=middle;resizable=0;points=[];" parent="wnVYSvcnBbL3-5IUJZ8I-175" vertex="1" connectable="0">
          <mxGeometry x="0.1408" y="4" relative="1" as="geometry">
            <mxPoint x="2" y="-11" as="offset" />
          </mxGeometry>
        </mxCell>
        <mxCell id="wnVYSvcnBbL3-5IUJZ8I-177" value="" style="endArrow=classic;html=1;rounded=0;exitX=0.5;exitY=1;exitDx=0;exitDy=0;entryX=0.75;entryY=1;entryDx=0;entryDy=0;" parent="1" source="wnVYSvcnBbL3-5IUJZ8I-168" target="IQA4J3aChzsUvz2AolsS-106" edge="1">
          <mxGeometry width="50" height="50" relative="1" as="geometry">
            <mxPoint x="990" y="970" as="sourcePoint" />
            <mxPoint x="1040" y="920" as="targetPoint" />
            <Array as="points">
              <mxPoint x="890" y="1080" />
              <mxPoint x="1750" y="1080" />
            </Array>
          </mxGeometry>
        </mxCell>
        <mxCell id="wnVYSvcnBbL3-5IUJZ8I-178" value="Tích chọn &lt;br&gt;vào các ô &lt;br&gt;mục tiêu" style="shape=rhombus;perimeter=rhombusPerimeter;whiteSpace=wrap;html=1;align=center;fontFamily=Times New Roman;" parent="1" vertex="1">
          <mxGeometry x="607" y="1215" width="105" height="80" as="geometry" />
        </mxCell>
        <mxCell id="wnVYSvcnBbL3-5IUJZ8I-179" value="Điền/ Thêm &lt;br&gt;thông tin vào&amp;nbsp;" style="rounded=1;whiteSpace=wrap;html=1;fontFamily=Times New Roman;" parent="1" vertex="1">
          <mxGeometry x="830" y="1160" width="120" height="60" as="geometry" />
        </mxCell>
        <mxCell id="wnVYSvcnBbL3-5IUJZ8I-183" value="" style="endArrow=classic;html=1;rounded=0;entryX=0;entryY=0.5;entryDx=0;entryDy=0;exitX=0.5;exitY=1;exitDx=0;exitDy=0;fontFamily=Times New Roman;" parent="1" source="wnVYSvcnBbL3-5IUJZ8I-178" target="wnVYSvcnBbL3-5IUJZ8I-184" edge="1">
          <mxGeometry width="50" height="50" relative="1" as="geometry">
            <mxPoint x="1839" y="2020.37" as="sourcePoint" />
            <mxPoint x="1839" y="1959.37" as="targetPoint" />
            <Array as="points">
              <mxPoint x="660" y="1325" />
            </Array>
          </mxGeometry>
        </mxCell>
        <mxCell id="wnVYSvcnBbL3-5IUJZ8I-184" value="&lt;font&gt;&lt;span style=&quot;font-size: 14px;&quot;&gt;Không được &lt;br&gt;điền/ thêm thông tin&lt;br&gt;&lt;/span&gt;&lt;/font&gt;" style="rounded=1;whiteSpace=wrap;html=1;fontFamily=Times New Roman;" parent="1" vertex="1">
          <mxGeometry x="830" y="1295" width="120" height="60" as="geometry" />
        </mxCell>
        <mxCell id="wnVYSvcnBbL3-5IUJZ8I-185" value="" style="shape=line;html=1;strokeWidth=6;strokeColor=#000000;fontFamily=Times New Roman;rotation=-90;" parent="1" vertex="1">
          <mxGeometry x="945.5" y="1260" width="237" height="10" as="geometry" />
        </mxCell>
        <mxCell id="wnVYSvcnBbL3-5IUJZ8I-186" value="" style="edgeStyle=orthogonalEdgeStyle;rounded=0;orthogonalLoop=1;jettySize=auto;html=1;exitX=0.5;exitY=1;exitDx=0;exitDy=0;" parent="1" source="wnVYSvcnBbL3-5IUJZ8I-190" target="wnVYSvcnBbL3-5IUJZ8I-193" edge="1">
          <mxGeometry relative="1" as="geometry">
            <mxPoint x="1309" y="1230" as="sourcePoint" />
          </mxGeometry>
        </mxCell>
        <mxCell id="wnVYSvcnBbL3-5IUJZ8I-187" value="Đủ" style="edgeLabel;html=1;align=center;verticalAlign=middle;resizable=0;points=[];" parent="wnVYSvcnBbL3-5IUJZ8I-186" vertex="1" connectable="0">
          <mxGeometry x="-0.2333" y="-3" relative="1" as="geometry">
            <mxPoint y="3" as="offset" />
          </mxGeometry>
        </mxCell>
        <mxCell id="wnVYSvcnBbL3-5IUJZ8I-188" value="" style="edgeStyle=orthogonalEdgeStyle;rounded=0;orthogonalLoop=1;jettySize=auto;html=1;exitX=0.5;exitY=0;exitDx=0;exitDy=0;" parent="1" source="wnVYSvcnBbL3-5IUJZ8I-190" target="wnVYSvcnBbL3-5IUJZ8I-192" edge="1">
          <mxGeometry relative="1" as="geometry">
            <mxPoint x="1169" y="1340" as="sourcePoint" />
          </mxGeometry>
        </mxCell>
        <mxCell id="wnVYSvcnBbL3-5IUJZ8I-189" value="Không đủ" style="edgeLabel;html=1;align=center;verticalAlign=middle;resizable=0;points=[];" parent="wnVYSvcnBbL3-5IUJZ8I-188" vertex="1" connectable="0">
          <mxGeometry x="0.1333" y="3" relative="1" as="geometry">
            <mxPoint x="-1" y="11" as="offset" />
          </mxGeometry>
        </mxCell>
        <mxCell id="wnVYSvcnBbL3-5IUJZ8I-190" value="Kiểm tra đủ số&lt;br&gt;&amp;nbsp;mục tiêu tối thiểu" style="rhombus;whiteSpace=wrap;html=1;" parent="1" vertex="1">
          <mxGeometry x="1153.2" y="1236" width="126" height="80" as="geometry" />
        </mxCell>
        <mxCell id="wnVYSvcnBbL3-5IUJZ8I-191" value="" style="endArrow=classic;html=1;rounded=0;entryX=0;entryY=0.5;entryDx=0;entryDy=0;" parent="1" target="wnVYSvcnBbL3-5IUJZ8I-190" edge="1">
          <mxGeometry width="50" height="50" relative="1" as="geometry">
            <mxPoint x="1066" y="1240" as="sourcePoint" />
            <mxPoint x="1949" y="1695.37" as="targetPoint" />
          </mxGeometry>
        </mxCell>
        <mxCell id="wnVYSvcnBbL3-5IUJZ8I-192" value="Hiện thông báo&amp;nbsp;&lt;br&gt;&quot;Vui lòng chọn đủ số mục tiêu tối thiểu &quot;" style="rounded=1;whiteSpace=wrap;html=1;" parent="1" vertex="1">
          <mxGeometry x="1156.2" y="1100" width="120" height="60" as="geometry" />
        </mxCell>
        <mxCell id="wnVYSvcnBbL3-5IUJZ8I-193" value="&lt;font&gt;&lt;span style=&quot;font-size: 14px;&quot;&gt;Hiện lên nút tiếp tục&lt;br&gt;&lt;/span&gt;&lt;/font&gt;" style="rounded=1;whiteSpace=wrap;html=1;fontFamily=Times New Roman;" parent="1" vertex="1">
          <mxGeometry x="1156.2" y="1400" width="120" height="60" as="geometry" />
        </mxCell>
        <mxCell id="wnVYSvcnBbL3-5IUJZ8I-194" value="" style="endArrow=classic;html=1;rounded=0;entryX=0.75;entryY=0.5;entryDx=0;entryDy=0;entryPerimeter=0;exitX=1;exitY=0.5;exitDx=0;exitDy=0;" parent="1" source="wnVYSvcnBbL3-5IUJZ8I-179" target="wnVYSvcnBbL3-5IUJZ8I-185" edge="1">
          <mxGeometry width="50" height="50" relative="1" as="geometry">
            <mxPoint x="2030.5" y="1755.37" as="sourcePoint" />
            <mxPoint x="1004" y="1280.56" as="targetPoint" />
          </mxGeometry>
        </mxCell>
        <mxCell id="wnVYSvcnBbL3-5IUJZ8I-195" value="" style="endArrow=classic;html=1;rounded=0;entryX=0;entryY=0.5;entryDx=0;entryDy=0;exitX=0.75;exitY=0.5;exitDx=0;exitDy=0;exitPerimeter=0;" parent="1" source="wnVYSvcnBbL3-5IUJZ8I-197" target="wnVYSvcnBbL3-5IUJZ8I-178" edge="1">
          <mxGeometry width="50" height="50" relative="1" as="geometry">
            <mxPoint x="2399" y="1912.25" as="sourcePoint" />
            <mxPoint x="2339" y="1955.375" as="targetPoint" />
          </mxGeometry>
        </mxCell>
        <mxCell id="wnVYSvcnBbL3-5IUJZ8I-196" value="Ấn nút Quay Lại" style="rounded=1;whiteSpace=wrap;html=1;" parent="1" vertex="1">
          <mxGeometry x="480.00000000000017" y="1340" width="120" height="60" as="geometry" />
        </mxCell>
        <mxCell id="wnVYSvcnBbL3-5IUJZ8I-197" value="" style="shape=line;html=1;strokeWidth=6;strokeColor=#000000;fontFamily=Times New Roman;rotation=-90;" parent="1" vertex="1">
          <mxGeometry x="395" y="1250" width="121.31" height="10" as="geometry" />
        </mxCell>
        <mxCell id="wnVYSvcnBbL3-5IUJZ8I-198" value="" style="endArrow=classic;html=1;rounded=0;entryX=0.25;entryY=0.5;entryDx=0;entryDy=0;entryPerimeter=0;exitX=1;exitY=0.5;exitDx=0;exitDy=0;" parent="1" source="wnVYSvcnBbL3-5IUJZ8I-184" target="wnVYSvcnBbL3-5IUJZ8I-185" edge="1">
          <mxGeometry width="50" height="50" relative="1" as="geometry">
            <mxPoint x="2100" y="1865.37" as="sourcePoint" />
            <mxPoint x="2150" y="1815.37" as="targetPoint" />
          </mxGeometry>
        </mxCell>
        <mxCell id="wnVYSvcnBbL3-5IUJZ8I-199" value="" style="endArrow=classic;html=1;rounded=0;entryX=0.5;entryY=0;entryDx=0;entryDy=0;exitX=0.25;exitY=0.5;exitDx=0;exitDy=0;exitPerimeter=0;" parent="1" source="wnVYSvcnBbL3-5IUJZ8I-197" target="wnVYSvcnBbL3-5IUJZ8I-196" edge="1">
          <mxGeometry width="50" height="50" relative="1" as="geometry">
            <mxPoint x="610" y="1330" as="sourcePoint" />
            <mxPoint x="1669" y="1320" as="targetPoint" />
            <Array as="points">
              <mxPoint x="540" y="1285" />
            </Array>
          </mxGeometry>
        </mxCell>
        <mxCell id="wnVYSvcnBbL3-5IUJZ8I-206" value="" style="endArrow=classic;html=1;rounded=0;entryX=0;entryY=0.5;entryDx=0;entryDy=0;exitX=0.5;exitY=0;exitDx=0;exitDy=0;" parent="1" source="wnVYSvcnBbL3-5IUJZ8I-178" target="wnVYSvcnBbL3-5IUJZ8I-179" edge="1">
          <mxGeometry width="50" height="50" relative="1" as="geometry">
            <mxPoint x="890" y="1345" as="sourcePoint" />
            <mxPoint x="940" y="1295" as="targetPoint" />
            <Array as="points">
              <mxPoint x="660" y="1190" />
            </Array>
          </mxGeometry>
        </mxCell>
        <mxCell id="wnVYSvcnBbL3-5IUJZ8I-208" value="" style="endArrow=classic;html=1;rounded=0;entryX=0.5;entryY=0;entryDx=0;entryDy=0;exitX=0;exitY=0.5;exitDx=0;exitDy=0;" parent="1" source="wnVYSvcnBbL3-5IUJZ8I-196" target="IQA4J3aChzsUvz2AolsS-121" edge="1">
          <mxGeometry width="50" height="50" relative="1" as="geometry">
            <mxPoint x="610" y="750" as="sourcePoint" />
            <mxPoint x="910" y="1210" as="targetPoint" />
            <Array as="points">
              <mxPoint x="200" y="1370" />
              <mxPoint x="200" y="660" />
              <mxPoint x="828" y="660" />
            </Array>
          </mxGeometry>
        </mxCell>
        <mxCell id="wnVYSvcnBbL3-5IUJZ8I-210" value="" style="endArrow=classic;html=1;rounded=0;entryX=1;entryY=0;entryDx=0;entryDy=0;exitX=0;exitY=0.25;exitDx=0;exitDy=0;" parent="1" source="wnVYSvcnBbL3-5IUJZ8I-192" target="IQA4J3aChzsUvz2AolsS-136" edge="1">
          <mxGeometry width="50" height="50" relative="1" as="geometry">
            <mxPoint x="810" y="1290" as="sourcePoint" />
            <mxPoint x="860" y="1240" as="targetPoint" />
            <Array as="points">
              <mxPoint x="400" y="1120" />
            </Array>
          </mxGeometry>
        </mxCell>
        <mxCell id="ID0eNAxXGshLxh3ft6_7-1" value="Hiện lên thông báo&lt;br&gt;&quot;Vui lòng kiểm tra thông tin kĩ trước khi hoàn thành nhé!&quot;" style="rounded=1;whiteSpace=wrap;html=1;" parent="1" vertex="1">
          <mxGeometry x="1156.2" y="1640" width="120" height="60" as="geometry" />
        </mxCell>
        <mxCell id="ID0eNAxXGshLxh3ft6_7-4" value="" style="edgeStyle=orthogonalEdgeStyle;rounded=0;orthogonalLoop=1;jettySize=auto;html=1;" parent="1" source="ID0eNAxXGshLxh3ft6_7-3" target="IQA4J3aChzsUvz2AolsS-235" edge="1">
          <mxGeometry relative="1" as="geometry" />
        </mxCell>
        <mxCell id="ID0eNAxXGshLxh3ft6_7-5" value="Đồng ý" style="edgeLabel;html=1;align=center;verticalAlign=middle;resizable=0;points=[];" parent="ID0eNAxXGshLxh3ft6_7-4" vertex="1" connectable="0">
          <mxGeometry x="-0.1701" y="1" relative="1" as="geometry">
            <mxPoint as="offset" />
          </mxGeometry>
        </mxCell>
        <mxCell id="ID0eNAxXGshLxh3ft6_7-3" value="Kiểm tra" style="rhombus;whiteSpace=wrap;html=1;" parent="1" vertex="1">
          <mxGeometry x="1176.2" y="1754" width="80" height="80" as="geometry" />
        </mxCell>
        <mxCell id="ID0eNAxXGshLxh3ft6_7-6" value="" style="endArrow=classic;html=1;rounded=0;exitX=0;exitY=0.5;exitDx=0;exitDy=0;entryX=0.5;entryY=1;entryDx=0;entryDy=0;" parent="1" source="ID0eNAxXGshLxh3ft6_7-3" target="IQA4J3aChzsUvz2AolsS-136" edge="1">
          <mxGeometry width="50" height="50" relative="1" as="geometry">
            <mxPoint x="1350" y="1880" as="sourcePoint" />
            <mxPoint x="610" y="1460" as="targetPoint" />
            <Array as="points">
              <mxPoint x="1100" y="1794" />
              <mxPoint x="1100" y="1420" />
              <mxPoint x="290" y="1420" />
            </Array>
          </mxGeometry>
        </mxCell>
        <mxCell id="ID0eNAxXGshLxh3ft6_7-7" value="Quay Lại" style="edgeLabel;html=1;align=center;verticalAlign=middle;resizable=0;points=[];" parent="ID0eNAxXGshLxh3ft6_7-6" vertex="1" connectable="0">
          <mxGeometry x="-0.822" y="-3" relative="1" as="geometry">
            <mxPoint x="-12" y="-157" as="offset" />
          </mxGeometry>
        </mxCell>
        <mxCell id="ID0eNAxXGshLxh3ft6_7-19" value="" style="endArrow=classic;html=1;rounded=0;exitX=0.5;exitY=0;exitDx=0;exitDy=0;entryX=0.5;entryY=0;entryDx=0;entryDy=0;" parent="1" source="wnVYSvcnBbL3-5IUJZ8I-67" target="IQA4J3aChzsUvz2AolsS-245" edge="1">
          <mxGeometry width="50" height="50" relative="1" as="geometry">
            <mxPoint x="1090" y="1820" as="sourcePoint" />
            <mxPoint x="1140" y="1770" as="targetPoint" />
            <Array as="points">
              <mxPoint x="510" y="1960" />
              <mxPoint x="1002" y="1960" />
            </Array>
          </mxGeometry>
        </mxCell>
        <mxCell id="ID0eNAxXGshLxh3ft6_7-22" value="Không" style="edgeLabel;html=1;align=center;verticalAlign=middle;resizable=0;points=[];" parent="ID0eNAxXGshLxh3ft6_7-19" vertex="1" connectable="0">
          <mxGeometry x="-0.0682" relative="1" as="geometry">
            <mxPoint y="-1" as="offset" />
          </mxGeometry>
        </mxCell>
        <mxCell id="ID0eNAxXGshLxh3ft6_7-20" value="" style="endArrow=classic;html=1;rounded=0;exitX=1;exitY=0.5;exitDx=0;exitDy=0;" parent="1" source="IQA4J3aChzsUvz2AolsS-217" target="ID0eNAxXGshLxh3ft6_7-21" edge="1">
          <mxGeometry width="50" height="50" relative="1" as="geometry">
            <mxPoint x="1090" y="1500" as="sourcePoint" />
            <mxPoint x="1350" y="1550" as="targetPoint" />
          </mxGeometry>
        </mxCell>
        <mxCell id="ID0eNAxXGshLxh3ft6_7-21" value="Lưu dữ liệu vào Database&amp;nbsp;" style="rounded=1;whiteSpace=wrap;html=1;" parent="1" vertex="1">
          <mxGeometry x="1369" y="1520" width="120" height="60" as="geometry" />
        </mxCell>
        <mxCell id="ID0eNAxXGshLxh3ft6_7-23" value="" style="endArrow=classic;html=1;rounded=0;exitX=0;exitY=0.5;exitDx=0;exitDy=0;" parent="1" source="wnVYSvcnBbL3-5IUJZ8I-67" target="ID0eNAxXGshLxh3ft6_7-24" edge="1">
          <mxGeometry width="50" height="50" relative="1" as="geometry">
            <mxPoint x="1340" y="2140" as="sourcePoint" />
            <mxPoint x="400" y="2050" as="targetPoint" />
          </mxGeometry>
        </mxCell>
        <mxCell id="ID0eNAxXGshLxh3ft6_7-24" value="Update lại dữ liệu trong Database" style="rounded=1;whiteSpace=wrap;html=1;" parent="1" vertex="1">
          <mxGeometry x="290" y="2021" width="120" height="60" as="geometry" />
        </mxCell>
        <mxCell id="ID0eNAxXGshLxh3ft6_7-25" value="" style="endArrow=classic;html=1;rounded=0;exitX=0.5;exitY=0;exitDx=0;exitDy=0;entryX=0;entryY=0.5;entryDx=0;entryDy=0;" parent="1" source="ID0eNAxXGshLxh3ft6_7-24" target="IQA4J3aChzsUvz2AolsS-235" edge="1">
          <mxGeometry width="50" height="50" relative="1" as="geometry">
            <mxPoint x="1060" y="1980" as="sourcePoint" />
            <mxPoint x="1110" y="1930" as="targetPoint" />
            <Array as="points">
              <mxPoint x="350" y="1926" />
            </Array>
          </mxGeometry>
        </mxCell>
        <mxCell id="ID0eNAxXGshLxh3ft6_7-26" value="" style="endArrow=classic;html=1;rounded=0;exitX=0.5;exitY=0;exitDx=0;exitDy=0;entryX=1;entryY=0.5;entryDx=0;entryDy=0;" parent="1" source="ID0eNAxXGshLxh3ft6_7-53" target="ID0eNAxXGshLxh3ft6_7-66" edge="1">
          <mxGeometry width="50" height="50" relative="1" as="geometry">
            <mxPoint x="-856" y="-353" as="sourcePoint" />
            <mxPoint x="90" y="-60" as="targetPoint" />
            <Array as="points">
              <mxPoint x="420" y="20" />
            </Array>
          </mxGeometry>
        </mxCell>
        <mxCell id="ID0eNAxXGshLxh3ft6_7-27" value="Đúng" style="edgeLabel;html=1;align=center;verticalAlign=middle;resizable=0;points=[];" parent="ID0eNAxXGshLxh3ft6_7-26" vertex="1" connectable="0">
          <mxGeometry x="0.1865" y="-1" relative="1" as="geometry">
            <mxPoint x="-18" y="-11" as="offset" />
          </mxGeometry>
        </mxCell>
        <mxCell id="ID0eNAxXGshLxh3ft6_7-29" value="Hiện lên thông báo&amp;nbsp;&lt;br&gt;&quot;Bạn có muốn gửi đi không?&quot;" style="rounded=1;whiteSpace=wrap;html=1;" parent="1" vertex="1">
          <mxGeometry x="-390" y="-230.00000000000003" width="120" height="60" as="geometry" />
        </mxCell>
        <mxCell id="ID0eNAxXGshLxh3ft6_7-32" value="" style="endArrow=classic;html=1;rounded=0;exitX=0;exitY=0.5;exitDx=0;exitDy=0;entryX=1;entryY=0.5;entryDx=0;entryDy=0;" parent="1" source="ID0eNAxXGshLxh3ft6_7-70" target="ID0eNAxXGshLxh3ft6_7-36" edge="1">
          <mxGeometry width="50" height="50" relative="1" as="geometry">
            <mxPoint x="-419.99999999999955" y="-303" as="sourcePoint" />
            <mxPoint x="-430" y="-263" as="targetPoint" />
          </mxGeometry>
        </mxCell>
        <mxCell id="ID0eNAxXGshLxh3ft6_7-79" value="Chưa phù hợp&lt;br&gt;Yêu cầu điều chỉnh" style="edgeLabel;html=1;align=center;verticalAlign=middle;resizable=0;points=[];" parent="ID0eNAxXGshLxh3ft6_7-32" vertex="1" connectable="0">
          <mxGeometry x="-0.0995" relative="1" as="geometry">
            <mxPoint as="offset" />
          </mxGeometry>
        </mxCell>
        <mxCell id="ID0eNAxXGshLxh3ft6_7-34" value="" style="endArrow=classic;html=1;rounded=0;exitX=0.5;exitY=0;exitDx=0;exitDy=0;entryX=0.5;entryY=1;entryDx=0;entryDy=0;" parent="1" source="ID0eNAxXGshLxh3ft6_7-70" target="ID0eNAxXGshLxh3ft6_7-29" edge="1">
          <mxGeometry width="50" height="50" relative="1" as="geometry">
            <mxPoint x="-720" y="-350" as="sourcePoint" />
            <mxPoint x="-240" y="-240" as="targetPoint" />
          </mxGeometry>
        </mxCell>
        <mxCell id="ID0eNAxXGshLxh3ft6_7-35" value="Duyệt KPI , gửi đi" style="edgeLabel;html=1;align=center;verticalAlign=middle;resizable=0;points=[];" parent="ID0eNAxXGshLxh3ft6_7-34" vertex="1" connectable="0">
          <mxGeometry x="-0.2667" y="-1" relative="1" as="geometry">
            <mxPoint x="-1" y="-4" as="offset" />
          </mxGeometry>
        </mxCell>
        <mxCell id="ID0eNAxXGshLxh3ft6_7-36" value="Hiện lên form để&lt;br&gt;Nhập nội dung yêu cầu điều chỉnh&amp;nbsp;" style="rounded=1;whiteSpace=wrap;html=1;" parent="1" vertex="1">
          <mxGeometry x="-640" y="-99.75" width="120" height="60" as="geometry" />
        </mxCell>
        <mxCell id="ID0eNAxXGshLxh3ft6_7-37" value="" style="endArrow=classic;html=1;rounded=0;exitX=0.5;exitY=0;exitDx=0;exitDy=0;" parent="1" source="ID0eNAxXGshLxh3ft6_7-29" target="ID0eNAxXGshLxh3ft6_7-38" edge="1">
          <mxGeometry width="50" height="50" relative="1" as="geometry">
            <mxPoint x="-545" y="-148.3699999999999" as="sourcePoint" />
            <mxPoint x="-495.0000000000001" y="-198.3699999999999" as="targetPoint" />
          </mxGeometry>
        </mxCell>
        <mxCell id="ID0eNAxXGshLxh3ft6_7-38" value="Kiểm tra" style="rhombus;whiteSpace=wrap;html=1;" parent="1" vertex="1">
          <mxGeometry x="-370.0000000000001" y="-370" width="80" height="80" as="geometry" />
        </mxCell>
        <mxCell id="ID0eNAxXGshLxh3ft6_7-43" value="" style="endArrow=classic;html=1;rounded=0;exitX=0;exitY=0.5;exitDx=0;exitDy=0;entryX=1;entryY=0.5;entryDx=0;entryDy=0;" parent="1" source="ID0eNAxXGshLxh3ft6_7-36" target="ID0eNAxXGshLxh3ft6_7-45" edge="1">
          <mxGeometry width="50" height="50" relative="1" as="geometry">
            <mxPoint x="-513" y="-149.75" as="sourcePoint" />
            <mxPoint x="-699.9999999999995" y="-70" as="targetPoint" />
          </mxGeometry>
        </mxCell>
        <mxCell id="ID0eNAxXGshLxh3ft6_7-45" value="Gửi&amp;nbsp;" style="rounded=1;whiteSpace=wrap;html=1;" parent="1" vertex="1">
          <mxGeometry x="-800" y="-99.75" width="120" height="60" as="geometry" />
        </mxCell>
        <mxCell id="ID0eNAxXGshLxh3ft6_7-46" value="" style="edgeStyle=orthogonalEdgeStyle;rounded=0;orthogonalLoop=1;jettySize=auto;html=1;" parent="1" source="ID0eNAxXGshLxh3ft6_7-47" target="ID0eNAxXGshLxh3ft6_7-48" edge="1">
          <mxGeometry relative="1" as="geometry" />
        </mxCell>
        <mxCell id="ID0eNAxXGshLxh3ft6_7-47" value="Hiện lên thông báo&amp;nbsp;&lt;br&gt;&quot;Bạn có muốn gửi đi không?&quot;" style="rounded=1;whiteSpace=wrap;html=1;" parent="1" vertex="1">
          <mxGeometry x="-800" y="30" width="120" height="60" as="geometry" />
        </mxCell>
        <mxCell id="ID0eNAxXGshLxh3ft6_7-48" value="Kiểm tra" style="rhombus;whiteSpace=wrap;html=1;" parent="1" vertex="1">
          <mxGeometry x="-780" y="140" width="80" height="80" as="geometry" />
        </mxCell>
        <mxCell id="ID0eNAxXGshLxh3ft6_7-49" value="Đồng ý" style="endArrow=classic;html=1;rounded=0;exitX=0;exitY=0.5;exitDx=0;exitDy=0;entryX=1;entryY=0.5;entryDx=0;entryDy=0;" parent="1" source="ID0eNAxXGshLxh3ft6_7-48" target="ID0eNAxXGshLxh3ft6_7-50" edge="1">
          <mxGeometry width="50" height="50" relative="1" as="geometry">
            <mxPoint x="-778" y="-142.37" as="sourcePoint" />
            <mxPoint x="-1540" y="-102.37" as="targetPoint" />
          </mxGeometry>
        </mxCell>
        <mxCell id="ID0eNAxXGshLxh3ft6_7-86" style="edgeStyle=orthogonalEdgeStyle;rounded=0;orthogonalLoop=1;jettySize=auto;html=1;entryX=0.5;entryY=1;entryDx=0;entryDy=0;exitX=1;exitY=0.5;exitDx=0;exitDy=0;" parent="1" source="ID0eNAxXGshLxh3ft6_7-48" target="ID0eNAxXGshLxh3ft6_7-36" edge="1">
          <mxGeometry relative="1" as="geometry">
            <mxPoint x="-680" y="190" as="sourcePoint" />
          </mxGeometry>
        </mxCell>
        <mxCell id="ID0eNAxXGshLxh3ft6_7-87" value="Không" style="edgeLabel;html=1;align=center;verticalAlign=middle;resizable=0;points=[];" parent="ID0eNAxXGshLxh3ft6_7-86" vertex="1" connectable="0">
          <mxGeometry x="-0.1248" y="1" relative="1" as="geometry">
            <mxPoint x="1" y="-31" as="offset" />
          </mxGeometry>
        </mxCell>
        <mxCell id="ID0eNAxXGshLxh3ft6_7-50" value="Gửi vào mục thông báo cần chỉnh sửa&lt;br&gt;(Lưu database sau đó hiện lên bên mục thông báo của Cá nhân)&amp;nbsp;" style="rounded=1;whiteSpace=wrap;html=1;fillColor=#fff2cc;strokeColor=#d6b656;" parent="1" vertex="1">
          <mxGeometry x="-990" y="120" width="120" height="120" as="geometry" />
        </mxCell>
        <mxCell id="ID0eNAxXGshLxh3ft6_7-64" value="" style="edgeStyle=orthogonalEdgeStyle;rounded=0;orthogonalLoop=1;jettySize=auto;html=1;" parent="1" source="ID0eNAxXGshLxh3ft6_7-53" target="ID0eNAxXGshLxh3ft6_7-63" edge="1">
          <mxGeometry relative="1" as="geometry" />
        </mxCell>
        <mxCell id="ID0eNAxXGshLxh3ft6_7-65" value="Sai" style="edgeLabel;html=1;align=center;verticalAlign=middle;resizable=0;points=[];" parent="ID0eNAxXGshLxh3ft6_7-64" vertex="1" connectable="0">
          <mxGeometry x="0.13" y="-2" relative="1" as="geometry">
            <mxPoint as="offset" />
          </mxGeometry>
        </mxCell>
        <mxCell id="ID0eNAxXGshLxh3ft6_7-53" value="Trưởng Khoa/ Phòng&amp;nbsp;" style="rhombus;whiteSpace=wrap;html=1;" parent="1" vertex="1">
          <mxGeometry x="370" y="45" width="100" height="90" as="geometry" />
        </mxCell>
        <mxCell id="ID0eNAxXGshLxh3ft6_7-54" value="Lưu dữ liệu vào&lt;br&gt;Database" style="rounded=1;whiteSpace=wrap;html=1;" parent="1" vertex="1">
          <mxGeometry x="-600" y="-360.0000000000002" width="120" height="60" as="geometry" />
        </mxCell>
        <mxCell id="ID0eNAxXGshLxh3ft6_7-60" value="Vào mục của Trưởng Khoa/ Phòng để kiểm duyệt" style="rounded=1;whiteSpace=wrap;html=1;" parent="1" vertex="1">
          <mxGeometry x="553.5" y="60" width="120" height="60" as="geometry" />
        </mxCell>
        <mxCell id="ID0eNAxXGshLxh3ft6_7-61" value="" style="endArrow=classic;html=1;rounded=0;entryX=1;entryY=0.5;entryDx=0;entryDy=0;exitX=0;exitY=0.5;exitDx=0;exitDy=0;" parent="1" source="ID0eNAxXGshLxh3ft6_7-60" target="ID0eNAxXGshLxh3ft6_7-53" edge="1">
          <mxGeometry width="50" height="50" relative="1" as="geometry">
            <mxPoint x="500" y="140" as="sourcePoint" />
            <mxPoint x="550" y="90" as="targetPoint" />
          </mxGeometry>
        </mxCell>
        <mxCell id="ID0eNAxXGshLxh3ft6_7-63" value="HIện thông báo lỗi&lt;br&gt;&quot;Bạn không có quyền truy cập&quot;" style="rounded=1;whiteSpace=wrap;html=1;" parent="1" vertex="1">
          <mxGeometry y="60" width="120" height="60" as="geometry" />
        </mxCell>
        <mxCell id="ID0eNAxXGshLxh3ft6_7-66" value="Hiện form Tổng hợp các phiếu KPI chưa Duyệt" style="rounded=1;whiteSpace=wrap;html=1;" parent="1" vertex="1">
          <mxGeometry y="-99.75" width="120" height="60" as="geometry" />
        </mxCell>
        <mxCell id="ID0eNAxXGshLxh3ft6_7-67" value="" style="endArrow=classic;html=1;rounded=0;exitX=0;exitY=0.5;exitDx=0;exitDy=0;" parent="1" source="ID0eNAxXGshLxh3ft6_7-66" target="ID0eNAxXGshLxh3ft6_7-68" edge="1">
          <mxGeometry width="50" height="50" relative="1" as="geometry">
            <mxPoint x="-270" y="-130" as="sourcePoint" />
            <mxPoint x="-220" y="-180" as="targetPoint" />
          </mxGeometry>
        </mxCell>
        <mxCell id="ID0eNAxXGshLxh3ft6_7-71" value="Chọn mở phiếu" style="edgeLabel;html=1;align=center;verticalAlign=middle;resizable=0;points=[];" parent="ID0eNAxXGshLxh3ft6_7-67" vertex="1" connectable="0">
          <mxGeometry x="0.0581" y="1" relative="1" as="geometry">
            <mxPoint y="-11" as="offset" />
          </mxGeometry>
        </mxCell>
        <mxCell id="ID0eNAxXGshLxh3ft6_7-68" value="Hiện lên bảng Excel" style="rounded=1;whiteSpace=wrap;html=1;" parent="1" vertex="1">
          <mxGeometry x="-229.99999999999955" y="-99.75" width="120" height="60" as="geometry" />
        </mxCell>
        <mxCell id="ID0eNAxXGshLxh3ft6_7-69" value="" style="endArrow=classic;html=1;rounded=0;exitX=0;exitY=0.5;exitDx=0;exitDy=0;entryX=1;entryY=0.5;entryDx=0;entryDy=0;" parent="1" source="ID0eNAxXGshLxh3ft6_7-68" target="ID0eNAxXGshLxh3ft6_7-70" edge="1">
          <mxGeometry width="50" height="50" relative="1" as="geometry">
            <mxPoint x="-270" y="-130" as="sourcePoint" />
            <mxPoint x="-310" y="-250" as="targetPoint" />
          </mxGeometry>
        </mxCell>
        <mxCell id="ID0eNAxXGshLxh3ft6_7-70" value="Chọn/ Ấn button" style="rhombus;whiteSpace=wrap;html=1;" parent="1" vertex="1">
          <mxGeometry x="-370" y="-110" width="80" height="80" as="geometry" />
        </mxCell>
        <mxCell id="ID0eNAxXGshLxh3ft6_7-73" value="" style="endArrow=classic;html=1;rounded=0;entryX=0.5;entryY=0;entryDx=0;entryDy=0;exitX=1;exitY=0.5;exitDx=0;exitDy=0;" parent="1" source="ID0eNAxXGshLxh3ft6_7-38" target="ID0eNAxXGshLxh3ft6_7-68" edge="1">
          <mxGeometry width="50" height="50" relative="1" as="geometry">
            <mxPoint x="-460" y="-50" as="sourcePoint" />
            <mxPoint x="-410" y="-100" as="targetPoint" />
            <Array as="points">
              <mxPoint x="-170" y="-330" />
            </Array>
          </mxGeometry>
        </mxCell>
        <mxCell id="ID0eNAxXGshLxh3ft6_7-74" value="Không" style="edgeLabel;html=1;align=center;verticalAlign=middle;resizable=0;points=[];" parent="ID0eNAxXGshLxh3ft6_7-73" vertex="1" connectable="0">
          <mxGeometry x="-0.1295" y="-2" relative="1" as="geometry">
            <mxPoint as="offset" />
          </mxGeometry>
        </mxCell>
        <mxCell id="ID0eNAxXGshLxh3ft6_7-77" value="" style="endArrow=classic;html=1;rounded=0;exitX=0;exitY=0.5;exitDx=0;exitDy=0;entryX=1;entryY=0.5;entryDx=0;entryDy=0;" parent="1" source="ID0eNAxXGshLxh3ft6_7-38" target="ID0eNAxXGshLxh3ft6_7-54" edge="1">
          <mxGeometry width="50" height="50" relative="1" as="geometry">
            <mxPoint x="-800" y="-50" as="sourcePoint" />
            <mxPoint x="-750" y="-100" as="targetPoint" />
          </mxGeometry>
        </mxCell>
        <mxCell id="ID0eNAxXGshLxh3ft6_7-80" value="" style="endArrow=classic;html=1;rounded=0;exitX=0.5;exitY=1;exitDx=0;exitDy=0;entryX=0.5;entryY=0;entryDx=0;entryDy=0;" parent="1" source="ID0eNAxXGshLxh3ft6_7-45" target="ID0eNAxXGshLxh3ft6_7-47" edge="1">
          <mxGeometry width="50" height="50" relative="1" as="geometry">
            <mxPoint x="-739.9999999999995" y="-110" as="sourcePoint" />
            <mxPoint x="-740" y="-180" as="targetPoint" />
          </mxGeometry>
        </mxCell>
        <mxCell id="ID0eNAxXGshLxh3ft6_7-82" value="Gửi" style="edgeLabel;html=1;align=center;verticalAlign=middle;resizable=0;points=[];" parent="ID0eNAxXGshLxh3ft6_7-80" vertex="1" connectable="0">
          <mxGeometry x="0.1087" y="2" relative="1" as="geometry">
            <mxPoint as="offset" />
          </mxGeometry>
        </mxCell>
        <mxCell id="ID0eNAxXGshLxh3ft6_7-88" value="" style="endArrow=classic;html=1;rounded=0;exitX=0.5;exitY=0;exitDx=0;exitDy=0;entryX=0.5;entryY=0;entryDx=0;entryDy=0;" parent="1" source="ID0eNAxXGshLxh3ft6_7-50" target="ID0eNAxXGshLxh3ft6_7-66" edge="1">
          <mxGeometry width="50" height="50" relative="1" as="geometry">
            <mxPoint x="-910" y="230" as="sourcePoint" />
            <mxPoint x="-280" y="50" as="targetPoint" />
            <Array as="points">
              <mxPoint x="-930" y="-400" />
              <mxPoint x="60" y="-400" />
            </Array>
          </mxGeometry>
        </mxCell>
        <mxCell id="ID0eNAxXGshLxh3ft6_7-91" value="" style="endArrow=classic;html=1;rounded=0;exitX=1;exitY=0;exitDx=0;exitDy=0;entryX=0.25;entryY=0.5;entryDx=0;entryDy=0;entryPerimeter=0;" parent="1" source="IQA4J3aChzsUvz2AolsS-165" target="ID0eNAxXGshLxh3ft6_7-92" edge="1">
          <mxGeometry width="50" height="50" relative="1" as="geometry">
            <mxPoint x="1260" y="80" as="sourcePoint" />
            <mxPoint x="1870" y="-110" as="targetPoint" />
            <Array as="points">
              <mxPoint x="880" y="-80" />
            </Array>
          </mxGeometry>
        </mxCell>
        <mxCell id="ID0eNAxXGshLxh3ft6_7-93" value="" style="edgeStyle=orthogonalEdgeStyle;rounded=0;orthogonalLoop=1;jettySize=auto;html=1;" parent="1" source="ID0eNAxXGshLxh3ft6_7-92" target="IQA4J3aChzsUvz2AolsS-155" edge="1">
          <mxGeometry relative="1" as="geometry" />
        </mxCell>
        <mxCell id="ID0eNAxXGshLxh3ft6_7-92" value="" style="shape=line;html=1;strokeWidth=6;strokeColor=#000000;fontFamily=Times New Roman;rotation=-90;" parent="1" vertex="1">
          <mxGeometry x="1828.75" y="-176.25" width="242.5" height="10" as="geometry" />
        </mxCell>
        <mxCell id="biRICw1MOHtQES1YVEGj-1" value="" style="endArrow=classic;html=1;rounded=0;exitX=1;exitY=0.5;exitDx=0;exitDy=0;entryX=0;entryY=0.5;entryDx=0;entryDy=0;" parent="1" source="IQA4J3aChzsUvz2AolsS-165" target="biRICw1MOHtQES1YVEGj-3" edge="1">
          <mxGeometry width="50" height="50" relative="1" as="geometry">
            <mxPoint x="990" y="170" as="sourcePoint" />
            <mxPoint x="979" y="-18.22485207100567" as="targetPoint" />
          </mxGeometry>
        </mxCell>
        <mxCell id="biRICw1MOHtQES1YVEGj-3" value="Ngân hàng KPI&amp;nbsp;" style="rounded=1;whiteSpace=wrap;html=1;" parent="1" vertex="1">
          <mxGeometry x="1282.1999999999998" y="50" width="120" height="60" as="geometry" />
        </mxCell>
        <mxCell id="biRICw1MOHtQES1YVEGj-4" value="Danh mục KPI" style="rounded=1;whiteSpace=wrap;html=1;" parent="1" vertex="1">
          <mxGeometry x="1279.2" y="150" width="120" height="60" as="geometry" />
        </mxCell>
        <mxCell id="biRICw1MOHtQES1YVEGj-5" value="" style="endArrow=classic;html=1;rounded=0;exitX=1;exitY=0.5;exitDx=0;exitDy=0;entryX=0;entryY=0.5;entryDx=0;entryDy=0;" parent="1" source="IQA4J3aChzsUvz2AolsS-165" target="biRICw1MOHtQES1YVEGj-4" edge="1">
          <mxGeometry width="50" height="50" relative="1" as="geometry">
            <mxPoint x="1160" y="120" as="sourcePoint" />
            <mxPoint x="1210" y="70" as="targetPoint" />
          </mxGeometry>
        </mxCell>
        <mxCell id="M3526h52hAV5U6Kfd7E9-1" value="Cơ chế giao chỉ tiêu KPI" style="rounded=1;whiteSpace=wrap;html=1;" parent="1" vertex="1">
          <mxGeometry x="1280" y="-50" width="120" height="60" as="geometry" />
        </mxCell>
        <mxCell id="K2uqtCNikwb7t-QJ0zeq-1" value="" style="endArrow=classic;html=1;rounded=0;entryX=0;entryY=0.5;entryDx=0;entryDy=0;exitX=1;exitY=0.25;exitDx=0;exitDy=0;" parent="1" source="IQA4J3aChzsUvz2AolsS-165" target="M3526h52hAV5U6Kfd7E9-1" edge="1">
          <mxGeometry width="50" height="50" relative="1" as="geometry">
            <mxPoint x="750" y="120" as="sourcePoint" />
            <mxPoint x="800" y="70" as="targetPoint" />
          </mxGeometry>
        </mxCell>
      </root>
    </mxGraphModel>
  </diagram>
  <diagram id="upypW-uXOF6SLxsQhw1O" name="Trọng tâm">
    <mxGraphModel dx="1658" dy="868" grid="1" gridSize="10" guides="1" tooltips="1" connect="1" arrows="1" fold="1" page="1" pageScale="1" pageWidth="850" pageHeight="1100" math="0" shadow="0">
      <root>
        <mxCell id="0" />
        <mxCell id="1" parent="0" />
        <mxCell id="L3DOPR2D-_HAoh62Q9rz-43" value="" style="edgeStyle=orthogonalEdgeStyle;rounded=0;orthogonalLoop=1;jettySize=auto;html=1;" parent="1" source="L3DOPR2D-_HAoh62Q9rz-44" target="L3DOPR2D-_HAoh62Q9rz-45" edge="1">
          <mxGeometry relative="1" as="geometry" />
        </mxCell>
        <mxCell id="L3DOPR2D-_HAoh62Q9rz-44" value="Shino &lt;br&gt;(Trùm lãnh đạo)" style="shape=umlActor;verticalLabelPosition=bottom;verticalAlign=top;html=1;outlineConnect=0;" parent="1" vertex="1">
          <mxGeometry x="110" y="1020" width="30" height="60" as="geometry" />
        </mxCell>
        <mxCell id="L3DOPR2D-_HAoh62Q9rz-45" value="Chọn ra 20 mục tiêu trong 1000 mục tiêu Ngân hàng KPI giao chỉ tiêu cho Khoa/ Phòng&amp;nbsp;" style="rounded=1;whiteSpace=wrap;html=1;" parent="1" vertex="1">
          <mxGeometry x="230" y="1010" width="120" height="80" as="geometry" />
        </mxCell>
        <mxCell id="L3DOPR2D-_HAoh62Q9rz-46" value="Kevin Kẹt&lt;br&gt;Trường Khoa/Phòng&amp;nbsp;" style="shape=umlActor;verticalLabelPosition=bottom;verticalAlign=top;html=1;outlineConnect=0;" parent="1" vertex="1">
          <mxGeometry x="760" y="1020" width="30" height="60" as="geometry" />
        </mxCell>
        <mxCell id="L3DOPR2D-_HAoh62Q9rz-47" value="Kevin Kẹt&lt;br&gt;Phó Khoa/Phòng&amp;nbsp;" style="shape=umlActor;verticalLabelPosition=bottom;verticalAlign=top;html=1;outlineConnect=0;" parent="1" vertex="1">
          <mxGeometry x="1240" y="1350" width="30" height="60" as="geometry" />
        </mxCell>
        <mxCell id="L3DOPR2D-_HAoh62Q9rz-48" value="Dương&lt;br&gt;(Cá nhân)&amp;nbsp;" style="shape=umlActor;verticalLabelPosition=bottom;verticalAlign=top;html=1;outlineConnect=0;" parent="1" vertex="1">
          <mxGeometry x="1530" y="1020" width="30" height="60" as="geometry" />
        </mxCell>
        <mxCell id="L3DOPR2D-_HAoh62Q9rz-49" value="" style="endArrow=classic;html=1;rounded=0;exitX=1;exitY=0.5;exitDx=0;exitDy=0;" parent="1" source="L3DOPR2D-_HAoh62Q9rz-45" target="L3DOPR2D-_HAoh62Q9rz-51" edge="1">
          <mxGeometry width="50" height="50" relative="1" as="geometry">
            <mxPoint x="710" y="1140" as="sourcePoint" />
            <mxPoint x="680" y="1350" as="targetPoint" />
          </mxGeometry>
        </mxCell>
        <mxCell id="L3DOPR2D-_HAoh62Q9rz-50" value="Gửi đi" style="edgeLabel;html=1;align=center;verticalAlign=middle;resizable=0;points=[];" parent="L3DOPR2D-_HAoh62Q9rz-49" vertex="1" connectable="0">
          <mxGeometry x="-0.0952" y="-3" relative="1" as="geometry">
            <mxPoint y="-13" as="offset" />
          </mxGeometry>
        </mxCell>
        <mxCell id="L3DOPR2D-_HAoh62Q9rz-51" value="Table nhận 20 KPI cho Khoa/ Phòng từ Lãnh đạo giao xuống Trưởng Khoa/ Phòng" style="rounded=1;whiteSpace=wrap;html=1;" parent="1" vertex="1">
          <mxGeometry x="470" y="1020" width="120" height="60" as="geometry" />
        </mxCell>
        <mxCell id="L3DOPR2D-_HAoh62Q9rz-52" value="" style="endArrow=classic;html=1;rounded=0;entryX=1;entryY=0.5;entryDx=0;entryDy=0;exitX=0.5;exitY=0.5;exitDx=0;exitDy=0;exitPerimeter=0;" parent="1" source="L3DOPR2D-_HAoh62Q9rz-46" target="L3DOPR2D-_HAoh62Q9rz-51" edge="1">
          <mxGeometry width="50" height="50" relative="1" as="geometry">
            <mxPoint x="830" y="1330" as="sourcePoint" />
            <mxPoint x="730" y="1010" as="targetPoint" />
          </mxGeometry>
        </mxCell>
        <mxCell id="L3DOPR2D-_HAoh62Q9rz-53" value="Bắt dữ liệu từ Shino về" style="edgeLabel;html=1;align=center;verticalAlign=middle;resizable=0;points=[];" parent="L3DOPR2D-_HAoh62Q9rz-52" vertex="1" connectable="0">
          <mxGeometry x="-0.1833" y="2" relative="1" as="geometry">
            <mxPoint x="-14" y="-12" as="offset" />
          </mxGeometry>
        </mxCell>
        <mxCell id="L3DOPR2D-_HAoh62Q9rz-55" value="" style="edgeStyle=orthogonalEdgeStyle;rounded=0;orthogonalLoop=1;jettySize=auto;html=1;exitX=0.5;exitY=1;exitDx=0;exitDy=0;" parent="1" source="L3DOPR2D-_HAoh62Q9rz-63" target="L3DOPR2D-_HAoh62Q9rz-58" edge="1">
          <mxGeometry relative="1" as="geometry">
            <mxPoint x="1051.72" y="1230" as="sourcePoint" />
          </mxGeometry>
        </mxCell>
        <mxCell id="L3DOPR2D-_HAoh62Q9rz-56" value="Gửi dữ liệu vào Phó Khoa/ Phòng" style="edgeLabel;html=1;align=center;verticalAlign=middle;resizable=0;points=[];" parent="L3DOPR2D-_HAoh62Q9rz-55" vertex="1" connectable="0">
          <mxGeometry x="-0.2182" y="-3" relative="1" as="geometry">
            <mxPoint x="13" y="44" as="offset" />
          </mxGeometry>
        </mxCell>
        <mxCell id="L3DOPR2D-_HAoh62Q9rz-58" value="Tablle&amp;nbsp;Nhận dữ liệu KPI đã được chỉ định cho Phó Khoa" style="rounded=1;whiteSpace=wrap;html=1;" parent="1" vertex="1">
          <mxGeometry x="890" y="1350" width="120" height="60" as="geometry" />
        </mxCell>
        <mxCell id="L3DOPR2D-_HAoh62Q9rz-59" value="" style="edgeStyle=orthogonalEdgeStyle;rounded=0;orthogonalLoop=1;jettySize=auto;html=1;exitX=1;exitY=0.5;exitDx=0;exitDy=0;entryX=0;entryY=0.5;entryDx=0;entryDy=0;" parent="1" source="L3DOPR2D-_HAoh62Q9rz-61" target="L3DOPR2D-_HAoh62Q9rz-83" edge="1">
          <mxGeometry relative="1" as="geometry">
            <mxPoint x="1140" y="1580" as="sourcePoint" />
            <mxPoint x="1700" y="1380" as="targetPoint" />
          </mxGeometry>
        </mxCell>
        <mxCell id="L3DOPR2D-_HAoh62Q9rz-60" value="Hoàn thành&amp;nbsp;" style="edgeLabel;html=1;align=center;verticalAlign=middle;resizable=0;points=[];" parent="L3DOPR2D-_HAoh62Q9rz-59" vertex="1" connectable="0">
          <mxGeometry x="-0.15" y="-3" relative="1" as="geometry">
            <mxPoint y="-13" as="offset" />
          </mxGeometry>
        </mxCell>
        <mxCell id="L3DOPR2D-_HAoh62Q9rz-61" value="Thực hiện&amp;nbsp;&amp;nbsp;điền trọng số và chọn các mục tiêu đã hoàn thành trong đống được giao&amp;nbsp;&lt;br&gt;Nộp lại chỉ tiêu" style="rounded=1;whiteSpace=wrap;html=1;" parent="1" vertex="1">
          <mxGeometry x="1400" y="1340" width="150" height="80" as="geometry" />
        </mxCell>
        <mxCell id="L3DOPR2D-_HAoh62Q9rz-63" value="Tổng hợp, phân chia KPI cho Phó Khoa, Cá nhân&lt;br&gt;VD: 5 KPI cho Cá nhân&amp;nbsp;&lt;br&gt;7 KPI Phó khoa" style="rounded=1;whiteSpace=wrap;html=1;" parent="1" vertex="1">
          <mxGeometry x="880" y="990" width="140" height="120" as="geometry" />
        </mxCell>
        <mxCell id="L3DOPR2D-_HAoh62Q9rz-64" value="" style="endArrow=classic;html=1;rounded=0;entryX=0;entryY=0.5;entryDx=0;entryDy=0;exitX=0.5;exitY=0.5;exitDx=0;exitDy=0;exitPerimeter=0;" parent="1" source="L3DOPR2D-_HAoh62Q9rz-46" target="L3DOPR2D-_HAoh62Q9rz-63" edge="1">
          <mxGeometry width="50" height="50" relative="1" as="geometry">
            <mxPoint x="838.28" y="1150" as="sourcePoint" />
            <mxPoint x="888.28" y="1100" as="targetPoint" />
          </mxGeometry>
        </mxCell>
        <mxCell id="L3DOPR2D-_HAoh62Q9rz-77" value="Sau đó" style="edgeLabel;html=1;align=center;verticalAlign=middle;resizable=0;points=[];" parent="L3DOPR2D-_HAoh62Q9rz-64" vertex="1" connectable="0">
          <mxGeometry x="0.1619" y="-1" relative="1" as="geometry">
            <mxPoint x="-6" y="-11" as="offset" />
          </mxGeometry>
        </mxCell>
        <mxCell id="L3DOPR2D-_HAoh62Q9rz-65" value="" style="edgeStyle=orthogonalEdgeStyle;rounded=0;orthogonalLoop=1;jettySize=auto;html=1;exitX=1;exitY=0.5;exitDx=0;exitDy=0;" parent="1" source="L3DOPR2D-_HAoh62Q9rz-63" target="L3DOPR2D-_HAoh62Q9rz-67" edge="1">
          <mxGeometry relative="1" as="geometry">
            <mxPoint x="1168.28" y="940" as="sourcePoint" />
          </mxGeometry>
        </mxCell>
        <mxCell id="L3DOPR2D-_HAoh62Q9rz-66" value="Gửi dữ liệu vào Cá nhân" style="edgeLabel;html=1;align=center;verticalAlign=middle;resizable=0;points=[];" parent="L3DOPR2D-_HAoh62Q9rz-65" vertex="1" connectable="0">
          <mxGeometry x="-0.2182" y="-3" relative="1" as="geometry">
            <mxPoint x="18" y="-13" as="offset" />
          </mxGeometry>
        </mxCell>
        <mxCell id="L3DOPR2D-_HAoh62Q9rz-67" value="Tablle Nhận dữ liệu KPI đã được chỉ định cho Cá nhân" style="rounded=1;whiteSpace=wrap;html=1;" parent="1" vertex="1">
          <mxGeometry x="1190" y="1020" width="120" height="60" as="geometry" />
        </mxCell>
        <mxCell id="L3DOPR2D-_HAoh62Q9rz-68" value="" style="endArrow=classic;html=1;rounded=0;exitX=0.5;exitY=0.5;exitDx=0;exitDy=0;exitPerimeter=0;entryX=1;entryY=0.5;entryDx=0;entryDy=0;" parent="1" source="L3DOPR2D-_HAoh62Q9rz-48" target="L3DOPR2D-_HAoh62Q9rz-67" edge="1">
          <mxGeometry width="50" height="50" relative="1" as="geometry">
            <mxPoint x="838.28" y="1150" as="sourcePoint" />
            <mxPoint x="888.28" y="1100" as="targetPoint" />
          </mxGeometry>
        </mxCell>
        <mxCell id="L3DOPR2D-_HAoh62Q9rz-69" value="Bắt dữ liệu KPI&amp;nbsp; từ Trưởng Khoa/ Phòng" style="edgeLabel;html=1;align=center;verticalAlign=middle;resizable=0;points=[];" parent="L3DOPR2D-_HAoh62Q9rz-68" vertex="1" connectable="0">
          <mxGeometry x="0.3371" y="-3" relative="1" as="geometry">
            <mxPoint x="29" y="-7" as="offset" />
          </mxGeometry>
        </mxCell>
        <mxCell id="L3DOPR2D-_HAoh62Q9rz-71" value="Thực hiện&amp;nbsp;&amp;nbsp;điền trọng số và chọn các mục tiêu đã hoàn thành trong đống được giao&amp;nbsp;&lt;br&gt;Nộp lại chỉ tiêu" style="rounded=1;whiteSpace=wrap;html=1;" parent="1" vertex="1">
          <mxGeometry x="1687.5" y="1010" width="150" height="80" as="geometry" />
        </mxCell>
        <mxCell id="L3DOPR2D-_HAoh62Q9rz-72" value="" style="endArrow=classic;html=1;rounded=0;entryX=0;entryY=0.5;entryDx=0;entryDy=0;exitX=0.5;exitY=0.5;exitDx=0;exitDy=0;exitPerimeter=0;" parent="1" source="L3DOPR2D-_HAoh62Q9rz-48" target="L3DOPR2D-_HAoh62Q9rz-71" edge="1">
          <mxGeometry width="50" height="50" relative="1" as="geometry">
            <mxPoint x="838.28" y="1150" as="sourcePoint" />
            <mxPoint x="888.28" y="1100" as="targetPoint" />
          </mxGeometry>
        </mxCell>
        <mxCell id="L3DOPR2D-_HAoh62Q9rz-81" value="Sau đó" style="edgeLabel;html=1;align=center;verticalAlign=middle;resizable=0;points=[];" parent="L3DOPR2D-_HAoh62Q9rz-72" vertex="1" connectable="0">
          <mxGeometry x="-0.0194" y="-1" relative="1" as="geometry">
            <mxPoint x="-1" y="-11" as="offset" />
          </mxGeometry>
        </mxCell>
        <mxCell id="L3DOPR2D-_HAoh62Q9rz-73" value="" style="endArrow=classic;html=1;rounded=0;exitX=0.5;exitY=0.5;exitDx=0;exitDy=0;entryX=0;entryY=0.5;entryDx=0;entryDy=0;exitPerimeter=0;" parent="1" source="L3DOPR2D-_HAoh62Q9rz-47" target="L3DOPR2D-_HAoh62Q9rz-61" edge="1">
          <mxGeometry width="50" height="50" relative="1" as="geometry">
            <mxPoint x="810" y="1350" as="sourcePoint" />
            <mxPoint x="1065" y="1540" as="targetPoint" />
          </mxGeometry>
        </mxCell>
        <mxCell id="L3DOPR2D-_HAoh62Q9rz-80" value="Sau đó" style="edgeLabel;html=1;align=center;verticalAlign=middle;resizable=0;points=[];" parent="L3DOPR2D-_HAoh62Q9rz-73" vertex="1" connectable="0">
          <mxGeometry x="0.0857" y="-2" relative="1" as="geometry">
            <mxPoint x="6" y="-12" as="offset" />
          </mxGeometry>
        </mxCell>
        <mxCell id="L3DOPR2D-_HAoh62Q9rz-74" value="" style="endArrow=classic;html=1;rounded=0;exitX=0.5;exitY=0.5;exitDx=0;exitDy=0;exitPerimeter=0;" parent="1" source="L3DOPR2D-_HAoh62Q9rz-47" edge="1">
          <mxGeometry width="50" height="50" relative="1" as="geometry">
            <mxPoint x="810" y="1350" as="sourcePoint" />
            <mxPoint x="1010" y="1380" as="targetPoint" />
          </mxGeometry>
        </mxCell>
        <mxCell id="L3DOPR2D-_HAoh62Q9rz-78" value="Bắt dữ liệu KPI từ Trưởng Khoa/ Phòng" style="edgeLabel;html=1;align=center;verticalAlign=middle;resizable=0;points=[];" parent="L3DOPR2D-_HAoh62Q9rz-74" vertex="1" connectable="0">
          <mxGeometry x="0.2774" y="4" relative="1" as="geometry">
            <mxPoint x="21" y="-14" as="offset" />
          </mxGeometry>
        </mxCell>
        <mxCell id="L3DOPR2D-_HAoh62Q9rz-82" value="" style="endArrow=classic;html=1;rounded=0;entryX=0.5;entryY=0;entryDx=0;entryDy=0;exitX=0.5;exitY=1;exitDx=0;exitDy=0;" parent="1" source="L3DOPR2D-_HAoh62Q9rz-71" target="L3DOPR2D-_HAoh62Q9rz-83" edge="1">
          <mxGeometry width="50" height="50" relative="1" as="geometry">
            <mxPoint x="1110" y="1170" as="sourcePoint" />
            <mxPoint x="1760" y="1240" as="targetPoint" />
          </mxGeometry>
        </mxCell>
        <mxCell id="L3DOPR2D-_HAoh62Q9rz-85" value="" style="edgeStyle=orthogonalEdgeStyle;rounded=0;orthogonalLoop=1;jettySize=auto;html=1;" parent="1" source="L3DOPR2D-_HAoh62Q9rz-83" target="L3DOPR2D-_HAoh62Q9rz-84" edge="1">
          <mxGeometry relative="1" as="geometry" />
        </mxCell>
        <mxCell id="L3DOPR2D-_HAoh62Q9rz-86" value="Gửi đi" style="edgeLabel;html=1;align=center;verticalAlign=middle;resizable=0;points=[];" parent="L3DOPR2D-_HAoh62Q9rz-85" vertex="1" connectable="0">
          <mxGeometry x="-0.1833" y="-2" relative="1" as="geometry">
            <mxPoint y="-12" as="offset" />
          </mxGeometry>
        </mxCell>
        <mxCell id="L3DOPR2D-_HAoh62Q9rz-83" value="Hiện lên bảng Excel Tổng hợp lại các thông tin nãy giờ điền để kiểm tra lại (có thể sửa)&amp;nbsp;&lt;br&gt;- (F*ck làm)" style="rounded=1;whiteSpace=wrap;html=1;" parent="1" vertex="1">
          <mxGeometry x="1695" y="1340" width="135" height="80" as="geometry" />
        </mxCell>
        <mxCell id="L3DOPR2D-_HAoh62Q9rz-84" value="Gửi dữi liệu vào table chờ Trưởng khoa xét duyệt" style="rounded=1;whiteSpace=wrap;html=1;" parent="1" vertex="1">
          <mxGeometry x="1950" y="1350" width="120" height="60" as="geometry" />
        </mxCell>
        <mxCell id="L3DOPR2D-_HAoh62Q9rz-87" value="" style="endArrow=classic;html=1;rounded=0;entryX=0;entryY=0;entryDx=60;entryDy=80;entryPerimeter=0;exitX=1;exitY=0.3333333333333333;exitDx=0;exitDy=0;exitPerimeter=0;" parent="1" source="L3DOPR2D-_HAoh62Q9rz-47" target="L3DOPR2D-_HAoh62Q9rz-89" edge="1">
          <mxGeometry width="50" height="50" relative="1" as="geometry">
            <mxPoint x="1340" y="1290" as="sourcePoint" />
            <mxPoint x="1440" y="1290" as="targetPoint" />
          </mxGeometry>
        </mxCell>
        <mxCell id="L3DOPR2D-_HAoh62Q9rz-89" value="Ông nội Phó Khoa kêu cho t phụ nữa thì ............" style="shape=callout;whiteSpace=wrap;html=1;perimeter=calloutPerimeter;" parent="1" vertex="1">
          <mxGeometry x="1380" y="1140" width="120" height="80" as="geometry" />
        </mxCell>
        <mxCell id="L3DOPR2D-_HAoh62Q9rz-90" value="" style="endArrow=classic;html=1;rounded=0;exitX=0;exitY=0;exitDx=0;exitDy=25;exitPerimeter=0;" parent="1" source="L3DOPR2D-_HAoh62Q9rz-89" target="L3DOPR2D-_HAoh62Q9rz-100" edge="1">
          <mxGeometry width="50" height="50" relative="1" as="geometry">
            <mxPoint x="1340" y="1220" as="sourcePoint" />
            <mxPoint x="1170" y="1120" as="targetPoint" />
          </mxGeometry>
        </mxCell>
        <mxCell id="L3DOPR2D-_HAoh62Q9rz-91" value="Phụ Trưởng Khoa&amp;nbsp;" style="edgeLabel;html=1;align=center;verticalAlign=middle;resizable=0;points=[];rotation=25;" parent="L3DOPR2D-_HAoh62Q9rz-90" vertex="1" connectable="0">
          <mxGeometry x="0.3687" y="2" relative="1" as="geometry">
            <mxPoint x="-184" y="-57" as="offset" />
          </mxGeometry>
        </mxCell>
        <mxCell id="L3DOPR2D-_HAoh62Q9rz-92" value="" style="endArrow=classic;html=1;rounded=0;exitX=0.5;exitY=0;exitDx=0;exitDy=0;exitPerimeter=0;" parent="1" source="L3DOPR2D-_HAoh62Q9rz-46" target="L3DOPR2D-_HAoh62Q9rz-93" edge="1">
          <mxGeometry width="50" height="50" relative="1" as="geometry">
            <mxPoint x="1020" y="1220" as="sourcePoint" />
            <mxPoint x="775" y="940" as="targetPoint" />
          </mxGeometry>
        </mxCell>
        <mxCell id="L3DOPR2D-_HAoh62Q9rz-93" value="Vào Frm kiểm duyệt để kiểm tra và duyệt những phiếu KPI" style="rounded=1;whiteSpace=wrap;html=1;" parent="1" vertex="1">
          <mxGeometry x="715" y="880" width="120" height="60" as="geometry" />
        </mxCell>
        <mxCell id="L3DOPR2D-_HAoh62Q9rz-94" value="" style="endArrow=classic;html=1;rounded=0;entryX=1;entryY=0.5;entryDx=0;entryDy=0;exitX=0.5;exitY=0;exitDx=0;exitDy=0;" parent="1" source="L3DOPR2D-_HAoh62Q9rz-84" target="L3DOPR2D-_HAoh62Q9rz-93" edge="1">
          <mxGeometry width="50" height="50" relative="1" as="geometry">
            <mxPoint x="1660" y="920" as="sourcePoint" />
            <mxPoint x="1070" y="1010" as="targetPoint" />
            <Array as="points">
              <mxPoint x="2010" y="910" />
            </Array>
          </mxGeometry>
        </mxCell>
        <mxCell id="L3DOPR2D-_HAoh62Q9rz-95" value="" style="endArrow=classic;html=1;rounded=0;exitX=0.5;exitY=0;exitDx=0;exitDy=0;" parent="1" source="L3DOPR2D-_HAoh62Q9rz-93" edge="1">
          <mxGeometry width="50" height="50" relative="1" as="geometry">
            <mxPoint x="710" y="1060" as="sourcePoint" />
            <mxPoint x="775" y="790" as="targetPoint" />
          </mxGeometry>
        </mxCell>
        <mxCell id="L3DOPR2D-_HAoh62Q9rz-98" value="Ngủ, chơi Game, lướt Face xong về" style="shape=process;whiteSpace=wrap;html=1;backgroundOutline=1;" parent="1" vertex="1">
          <mxGeometry x="715" y="730" width="120" height="60" as="geometry" />
        </mxCell>
        <mxCell id="L3DOPR2D-_HAoh62Q9rz-100" value="OK" style="ellipse;shape=cloud;whiteSpace=wrap;html=1;" parent="1" vertex="1">
          <mxGeometry x="1180" y="1100" width="120" height="80" as="geometry" />
        </mxCell>
        <mxCell id="L3DOPR2D-_HAoh62Q9rz-102" value="" style="endArrow=classic;html=1;rounded=0;entryX=0.986;entryY=0.667;entryDx=0;entryDy=0;entryPerimeter=0;exitX=0.16;exitY=0.55;exitDx=0;exitDy=0;exitPerimeter=0;" parent="1" source="L3DOPR2D-_HAoh62Q9rz-100" target="L3DOPR2D-_HAoh62Q9rz-63" edge="1">
          <mxGeometry width="50" height="50" relative="1" as="geometry">
            <mxPoint x="1380" y="1300" as="sourcePoint" />
            <mxPoint x="1430" y="1250" as="targetPoint" />
          </mxGeometry>
        </mxCell>
        <mxCell id="L3DOPR2D-_HAoh62Q9rz-103" value="Ai rảnh&amp;nbsp;" style="shape=callout;whiteSpace=wrap;html=1;perimeter=calloutPerimeter;" parent="1" vertex="1">
          <mxGeometry x="1490" y="1210" width="120" height="80" as="geometry" />
        </mxCell>
        <mxCell id="L3DOPR2D-_HAoh62Q9rz-106" value="" style="endArrow=classic;html=1;rounded=0;exitX=0;exitY=0;exitDx=60;exitDy=80;exitPerimeter=0;entryX=0.5;entryY=0;entryDx=0;entryDy=0;" parent="1" source="L3DOPR2D-_HAoh62Q9rz-103" target="L3DOPR2D-_HAoh62Q9rz-61" edge="1">
          <mxGeometry width="50" height="50" relative="1" as="geometry">
            <mxPoint x="1380" y="1370" as="sourcePoint" />
            <mxPoint x="1430" y="1320" as="targetPoint" />
          </mxGeometry>
        </mxCell>
        <mxCell id="L3DOPR2D-_HAoh62Q9rz-107" value="" style="endArrow=classic;html=1;rounded=0;exitX=1;exitY=0.3333333333333333;exitDx=0;exitDy=0;exitPerimeter=0;entryX=0;entryY=0;entryDx=0;entryDy=50;entryPerimeter=0;" parent="1" source="L3DOPR2D-_HAoh62Q9rz-47" target="L3DOPR2D-_HAoh62Q9rz-103" edge="1">
          <mxGeometry width="50" height="50" relative="1" as="geometry">
            <mxPoint x="1380" y="1300" as="sourcePoint" />
            <mxPoint x="1430" y="1250" as="targetPoint" />
          </mxGeometry>
        </mxCell>
      </root>
    </mxGraphModel>
  </diagram>
</mxfile>
